<svg width="194" height="50" viewBox="0 0 194 50" fill="none" xmlns="http://www.w3.org/2000/svg">
<path d="M35 45V5H5V42.5C5 43.8807 6.1193 45 7.5 45H35ZM42.5 50H7.5C3.35787 50 0 46.6423 0 42.5V2.5C0 1.1193 1.1193 0 2.5 0H37.5C38.8807 0 40 1.1193 40 2.5V20H50V42.5C50 46.6423 46.6423 50 42.5 50ZM40 25V42.5C40 43.8807 41.1193 45 42.5 45C43.8807 45 45 43.8807 45 42.5V25H40ZM10 10H25V25H10V10ZM15 15V20H20V15H15ZM10 27.5H30V32.5H10V27.5ZM10 35H30V40H10V35Z" fill="url(#paint0_linear_11_14)"/>
<path d="M66.7549 24.84C67.2349 24.8667 67.6749 25.0333 68.0749 25.34C68.4749 25.6333 68.7883 26.0267 69.0149 26.52C69.2549 27.0133 69.3749 27.5467 69.3749 28.12C69.3749 29.4267 68.8883 30.4533 67.9149 31.2C66.9549 31.9467 65.6283 32.32 63.9349 32.32C62.9083 32.32 61.9949 32.12 61.1949 31.72C60.4083 31.32 59.7949 30.76 59.3549 30.04C58.9149 29.32 58.6949 28.4933 58.6949 27.56V26.96H62.4349V27.2C62.4349 27.7067 62.5749 28.1067 62.8549 28.4C63.1483 28.6933 63.5416 28.84 64.0349 28.84C64.5149 28.84 64.9016 28.7333 65.1949 28.52C65.4883 28.2933 65.6349 28 65.6349 27.64C65.6349 27.2667 65.5083 26.9733 65.2549 26.76C65.0016 26.5467 64.6549 26.44 64.2149 26.44H63.6749V23.3H64.2149C64.8683 23.3 65.1949 23.0667 65.1949 22.6C65.1949 22.3333 65.0949 22.1333 64.8949 22C64.7083 21.8667 64.3949 21.7133 63.9549 21.54C63.4749 21.3667 63.0749 21.1867 62.7549 21C62.4483 20.8133 62.1749 20.52 61.9349 20.12C61.7083 19.7067 61.5949 19.1667 61.5949 18.5V18H65.3349V18.08C65.3349 18.32 65.4283 18.52 65.6149 18.68C65.8149 18.84 66.1416 19.0333 66.5949 19.26C67.0749 19.5 67.4683 19.7333 67.7749 19.96C68.0949 20.1867 68.3683 20.5 68.5949 20.9C68.8349 21.2867 68.9549 21.7733 68.9549 22.36C68.9549 23.04 68.7749 23.58 68.4149 23.98C68.0549 24.38 67.5016 24.6667 66.7549 24.84ZM82.457 22.58C83.3236 22.58 84.0903 22.7667 84.757 23.14C85.437 23.5133 85.957 24.04 86.317 24.72C86.6903 25.3867 86.877 26.16 86.877 27.04V32H83.117V27.58C83.117 27.1 83.0036 26.7267 82.777 26.46C82.5636 26.1933 82.2503 26.06 81.837 26.06C81.4236 26.06 81.1036 26.1933 80.877 26.46C80.6636 26.7267 80.557 27.1 80.557 27.58V30.36H76.797V27.58C76.797 27.1 76.6836 26.7267 76.457 26.46C76.2436 26.1933 75.9303 26.06 75.517 26.06C75.1036 26.06 74.7836 26.1933 74.557 26.46C74.3436 26.7267 74.237 27.1 74.237 27.58V32H70.477V24.1C70.477 22.9 70.7503 21.84 71.297 20.92C71.857 20 72.6303 19.2867 73.617 18.78C74.6036 18.26 75.737 18 77.017 18H84.137V21.3H76.377C75.6836 21.3 75.1036 21.4867 74.637 21.86C74.1836 22.22 73.9836 22.6667 74.037 23.2C74.2636 22.7867 74.837 22.58 75.757 22.58C76.4236 22.58 77.0303 22.7867 77.577 23.2C78.1236 23.6133 78.4903 24.16 78.677 24.84C78.8903 24.0933 79.3236 23.5333 79.977 23.16C80.6303 22.7733 81.457 22.58 82.457 22.58ZM100.255 17.68C101.095 17.68 101.848 17.8867 102.515 18.3C103.195 18.7 103.721 19.2667 104.095 20C104.481 20.72 104.675 21.5333 104.675 22.44V32H100.915V22.68C100.915 22.2 100.801 21.8267 100.575 21.56C100.361 21.2933 100.048 21.16 99.6346 21.16C99.2213 21.16 98.9013 21.2933 98.6746 21.56C98.4613 21.8267 98.3546 22.2 98.3546 22.68V29.14H94.5946V22.68C94.5946 22.2 94.4813 21.8267 94.2546 21.56C94.0413 21.2933 93.7279 21.16 93.3146 21.16C92.9013 21.16 92.5813 21.2933 92.3546 21.56C92.1413 21.8267 92.0346 22.2 92.0346 22.68V32H88.2746V22.44C88.2746 21.5333 88.4613 20.72 88.8346 20C89.2213 19.2667 89.7479 18.7 90.4146 18.3C91.0946 17.8867 91.8546 17.68 92.6946 17.68C93.6813 17.68 94.5013 17.8733 95.1546 18.26C95.8079 18.6333 96.2479 19.1867 96.4746 19.92C96.7013 19.1867 97.1413 18.6333 97.7946 18.26C98.4479 17.8733 99.2679 17.68 100.255 17.68ZM114.042 23.58C114.842 23.8333 115.462 24.3067 115.902 25C116.356 25.6933 116.582 26.52 116.582 27.48C116.582 28.4267 116.356 29.2667 115.902 30C115.462 30.7333 114.836 31.3067 114.022 31.72C113.222 32.12 112.309 32.32 111.282 32.32C110.256 32.32 109.336 32.12 108.522 31.72C107.722 31.3067 107.096 30.7333 106.642 30C106.202 29.2667 105.982 28.4267 105.982 27.48C105.982 26.1867 106.422 25.1133 107.302 24.26C108.196 23.4067 109.389 22.9067 110.882 22.76C111.269 22.72 111.562 22.6133 111.762 22.44C111.976 22.2533 112.082 22.0133 112.082 21.72C112.082 21.4533 111.996 21.2467 111.822 21.1C111.649 20.94 111.409 20.86 111.102 20.86C110.836 20.86 110.609 20.9467 110.422 21.12C110.236 21.2933 110.142 21.5067 110.142 21.76V21.8H106.462V21.7C106.462 20.9133 106.662 20.2133 107.062 19.6C107.462 18.9867 108.016 18.5133 108.722 18.18C109.442 17.8467 110.269 17.68 111.202 17.68C112.629 17.68 113.756 17.9933 114.582 18.62C115.409 19.2467 115.822 20.0933 115.822 21.16C115.822 21.7333 115.669 22.2267 115.362 22.64C115.056 23.0533 114.616 23.3667 114.042 23.58ZM111.282 28.84C111.749 28.84 112.122 28.72 112.402 28.48C112.696 28.2267 112.842 27.8933 112.842 27.48C112.842 27.08 112.696 26.76 112.402 26.52C112.122 26.2667 111.749 26.14 111.282 26.14C110.816 26.14 110.436 26.2667 110.142 26.52C109.862 26.76 109.722 27.08 109.722 27.48C109.722 27.8933 109.862 28.2267 110.142 28.48C110.436 28.72 110.816 28.84 111.282 28.84ZM129.664 22.58C130.531 22.58 131.297 22.7667 131.964 23.14C132.644 23.5133 133.164 24.04 133.524 24.72C133.897 25.3867 134.084 26.16 134.084 27.04V32H130.324V27.58C130.324 27.1 130.211 26.7267 129.984 26.46C129.771 26.1933 129.457 26.06 129.044 26.06C128.631 26.06 128.311 26.1933 128.084 26.46C127.871 26.7267 127.764 27.1 127.764 27.58V30.36H124.004V27.58C124.004 27.1 123.891 26.7267 123.664 26.46C123.451 26.1933 123.137 26.06 122.724 26.06C122.311 26.06 121.991 26.1933 121.764 26.46C121.551 26.7267 121.444 27.1 121.444 27.58V32H117.684V24.1C117.684 22.9 117.957 21.84 118.504 20.92C119.064 20 119.837 19.2867 120.824 18.78C121.811 18.26 122.944 18 124.224 18H131.344V21.3H123.584C122.891 21.3 122.311 21.4867 121.844 21.86C121.391 22.22 121.191 22.6667 121.244 23.2C121.471 22.7867 122.044 22.58 122.964 22.58C123.631 22.58 124.237 22.7867 124.784 23.2C125.331 23.6133 125.697 24.16 125.884 24.84C126.097 24.0933 126.531 23.5333 127.184 23.16C127.837 22.7733 128.664 22.58 129.664 22.58ZM138.842 27.12C138.842 27.64 138.975 28.06 139.242 28.38C139.508 28.6867 139.868 28.84 140.322 28.84C140.775 28.84 141.135 28.6867 141.402 28.38C141.668 28.06 141.802 27.64 141.802 27.12V26C141.802 25.48 141.728 25.0333 141.582 24.66C141.435 24.2733 141.248 23.9533 141.022 23.7C140.795 23.4467 140.495 23.1533 140.122 22.82C139.708 22.4467 139.368 22.1133 139.102 21.82C138.848 21.5133 138.635 21.1267 138.462 20.66C138.288 20.18 138.202 19.6067 138.202 18.94V18H141.962V18.62C141.962 19.0467 142.068 19.4133 142.282 19.72C142.508 20.0267 142.855 20.3933 143.322 20.82C143.802 21.26 144.188 21.66 144.482 22.02C144.775 22.3667 145.028 22.8267 145.242 23.4C145.455 23.96 145.562 24.6333 145.562 25.42V27.36C145.562 28.3467 145.342 29.2133 144.902 29.96C144.475 30.7067 143.862 31.2867 143.062 31.7C142.275 32.1133 141.362 32.32 140.322 32.32C139.282 32.32 138.362 32.1133 137.562 31.7C136.775 31.2867 136.162 30.7067 135.722 29.96C135.295 29.2133 135.082 28.3467 135.082 27.36V25.54H138.842V27.12ZM152.366 17.52C153.379 17.52 154.273 17.72 155.046 18.12C155.819 18.5067 156.419 19.0533 156.846 19.76C157.273 20.4667 157.486 21.2867 157.486 22.22V27.4C157.486 28.4267 157.259 29.3267 156.806 30.1C156.366 30.86 155.739 31.4467 154.926 31.86C154.113 32.2733 153.166 32.48 152.086 32.48C151.033 32.48 150.093 32.2733 149.266 31.86C148.453 31.4333 147.813 30.8467 147.346 30.1C146.893 29.3533 146.666 28.5 146.666 27.54C146.666 26.0733 147.133 24.92 148.066 24.08C148.999 23.24 150.279 22.82 151.906 22.82H153.646V22.04C153.646 21.6667 153.519 21.3733 153.266 21.16C153.013 20.9333 152.673 20.82 152.246 20.82C151.886 20.82 151.586 20.9067 151.346 21.08C151.106 21.24 150.966 21.46 150.926 21.74H146.986C147.013 20.7933 147.273 20.0067 147.766 19.38C148.273 18.74 148.926 18.2733 149.726 17.98C150.539 17.6733 151.419 17.52 152.366 17.52ZM153.646 26.16H152.086C151.606 26.16 151.219 26.2867 150.926 26.54C150.646 26.7933 150.506 27.1267 150.506 27.54C150.506 27.9533 150.646 28.2867 150.926 28.54C151.219 28.7933 151.606 28.92 152.086 28.92C152.566 28.92 152.946 28.7667 153.226 28.46C153.506 28.14 153.646 27.7133 153.646 27.18V26.16ZM164.02 17.68C165.607 17.68 166.86 18.1067 167.78 18.96C168.7 19.8 169.16 20.9533 169.16 22.42V27.36C169.16 28.3467 168.94 29.2133 168.5 29.96C168.073 30.7067 167.46 31.2867 166.66 31.7C165.873 32.1133 164.96 32.32 163.92 32.32C162.88 32.32 161.96 32.1133 161.16 31.7C160.373 31.2867 159.76 30.7067 159.32 29.96C158.893 29.2133 158.68 28.3467 158.68 27.36V25.96H162.44V27.12C162.44 27.64 162.573 28.06 162.84 28.38C163.107 28.6867 163.467 28.84 163.92 28.84C164.373 28.84 164.733 28.6867 165 28.38C165.267 28.06 165.4 27.64 165.4 27.12V22.88C165.4 22.3333 165.28 21.9133 165.04 21.62C164.8 21.3133 164.46 21.16 164.02 21.16C163.58 21.16 163.24 21.3133 163 21.62C162.76 21.9133 162.64 22.3333 162.64 22.88V23.42H158.88V22.42C158.88 21.4867 159.093 20.66 159.52 19.94C159.947 19.22 160.547 18.6667 161.32 18.28C162.107 17.88 163.007 17.68 164.02 17.68ZM177.815 22.94C178.842 23.2067 179.648 23.7467 180.235 24.56C180.835 25.3733 181.135 26.3533 181.135 27.5C181.135 28.46 180.915 29.3067 180.475 30.04C180.035 30.76 179.408 31.32 178.595 31.72C177.795 32.12 176.862 32.32 175.795 32.32C174.728 32.32 173.788 32.12 172.975 31.72C172.175 31.32 171.555 30.76 171.115 30.04C170.675 29.3067 170.455 28.46 170.455 27.5C170.455 26.26 170.782 25.2267 171.435 24.4C172.088 23.5733 172.995 23.0533 174.155 22.84V21.94C174.155 21.5667 174.088 21.2733 173.955 21.06C173.822 20.8467 173.615 20.6133 173.335 20.36C173.042 20.08 172.822 19.82 172.675 19.58C172.528 19.3267 172.455 18.98 172.455 18.54V18H176.095V18.28C176.095 18.4933 176.148 18.68 176.255 18.84C176.375 19 176.555 19.2 176.795 19.44C177.128 19.76 177.382 20.06 177.555 20.34C177.728 20.62 177.815 20.9867 177.815 21.44V22.94ZM175.795 28.84C176.275 28.84 176.662 28.7067 176.955 28.44C177.248 28.16 177.395 27.8 177.395 27.36C177.395 26.92 177.248 26.5667 176.955 26.3C176.662 26.0333 176.275 25.9 175.795 25.9C175.315 25.9 174.928 26.0333 174.635 26.3C174.342 26.5667 174.195 26.92 174.195 27.36C174.195 27.8 174.342 28.16 174.635 28.44C174.928 28.7067 175.315 28.84 175.795 28.84ZM189.155 22.88C189.155 22.36 189.021 21.9467 188.755 21.64C188.488 21.32 188.128 21.16 187.675 21.16C187.221 21.16 186.861 21.32 186.595 21.64C186.328 21.9467 186.195 22.36 186.195 22.88V32H182.435V22.64C182.435 21.6533 182.648 20.7867 183.075 20.04C183.515 19.2933 184.128 18.7133 184.915 18.3C185.715 17.8867 186.635 17.68 187.675 17.68C188.715 17.68 189.628 17.8867 190.415 18.3C191.215 18.7133 191.828 19.2933 192.255 20.04C192.695 20.7867 192.915 21.6533 192.915 22.64V32H189.155V22.88Z" fill="url(#paint1_linear_11_14)"/>
<defs>
<linearGradient id="paint0_linear_11_14" x1="25" y1="0" x2="25" y2="50" gradientUnits="userSpaceOnUse">
<stop stop-color="#2868D4"/>
<stop offset="1" stop-color="#3DB7B2"/>
</linearGradient>
<linearGradient id="paint1_linear_11_14" x1="58" y1="25" x2="194" y2="25" gradientUnits="userSpaceOnUse">
<stop stop-color="#286AD3"/>
<stop offset="1" stop-color="#248F8B"/>
</linearGradient>
</defs>
</svg>
