<svg width="165" height="50" viewBox="0 0 165 50" fill="none" xmlns="http://www.w3.org/2000/svg">
<path d="M35 45V5H5V42.5C5 43.8807 6.1193 45 7.5 45H35ZM42.5 50H7.5C3.35787 50 0 46.6423 0 42.5V2.5C0 1.1193 1.1193 0 2.5 0H37.5C38.8807 0 40 1.1193 40 2.5V20H50V42.5C50 46.6423 46.6423 50 42.5 50ZM40 25V42.5C40 43.8807 41.1193 45 42.5 45C43.8807 45 45 43.8807 45 42.5V25H40ZM10 10H25V25H10V10ZM15 15V20H20V15H15ZM10 27.5H30V32.5H10V27.5ZM10 35H30V40H10V35Z" fill="url(#paint0_linear_11_17)"/>
<path d="M67.4713 22.58C68.178 23.2467 68.6713 23.92 68.9513 24.6C69.2447 25.2667 69.3913 26.0867 69.3913 27.06C69.3913 28.1267 69.178 29.06 68.7513 29.86C68.3247 30.6467 67.718 31.2533 66.9313 31.68C66.1447 32.1067 65.218 32.32 64.1513 32.32C63.1113 32.32 62.1913 32.1133 61.3913 31.7C60.6047 31.2867 59.9913 30.7067 59.5513 29.96C59.1247 29.2133 58.9113 28.3467 58.9113 27.36V18H62.6713V27.12C62.6713 27.64 62.8047 28.06 63.0713 28.38C63.338 28.6867 63.698 28.84 64.1513 28.84C64.618 28.84 64.978 28.6733 65.2313 28.34C65.498 28.0067 65.6313 27.54 65.6313 26.94C65.6313 26.0733 65.338 25.2867 64.7513 24.58L67.4713 22.58ZM77.4087 22.88C77.4087 22.36 77.2753 21.9467 77.0087 21.64C76.742 21.32 76.382 21.16 75.9287 21.16C75.4753 21.16 75.1153 21.32 74.8487 21.64C74.582 21.9467 74.4487 22.36 74.4487 22.88V32H70.6887V22.64C70.6887 21.6533 70.902 20.7867 71.3287 20.04C71.7687 19.2933 72.382 18.7133 73.1687 18.3C73.9687 17.8867 74.8887 17.68 75.9287 17.68C76.9687 17.68 77.882 17.8867 78.6687 18.3C79.4687 18.7133 80.082 19.2933 80.5087 20.04C80.9487 20.7867 81.1687 21.6533 81.1687 22.64V32H77.4087V22.88ZM86.119 27.12C86.119 27.64 86.2523 28.06 86.519 28.38C86.7857 28.6867 87.1457 28.84 87.599 28.84C88.0523 28.84 88.4123 28.6867 88.679 28.38C88.9457 28.06 89.079 27.64 89.079 27.12V26C89.079 25.48 89.0057 25.0333 88.859 24.66C88.7123 24.2733 88.5257 23.9533 88.299 23.7C88.0723 23.4467 87.7723 23.1533 87.399 22.82C86.9857 22.4467 86.6457 22.1133 86.379 21.82C86.1257 21.5133 85.9123 21.1267 85.739 20.66C85.5657 20.18 85.479 19.6067 85.479 18.94V18H89.239V18.62C89.239 19.0467 89.3457 19.4133 89.559 19.72C89.7857 20.0267 90.1323 20.3933 90.599 20.82C91.079 21.26 91.4657 21.66 91.759 22.02C92.0523 22.3667 92.3057 22.8267 92.519 23.4C92.7323 23.96 92.839 24.6333 92.839 25.42V27.36C92.839 28.3467 92.619 29.2133 92.179 29.96C91.7523 30.7067 91.139 31.2867 90.339 31.7C89.5523 32.1133 88.639 32.32 87.599 32.32C86.559 32.32 85.639 32.1133 84.839 31.7C84.0523 31.2867 83.439 30.7067 82.999 29.96C82.5723 29.2133 82.359 28.3467 82.359 27.36V25.54H86.119V27.12ZM97.9834 22.86H99.7034C101.29 22.86 102.537 23.2733 103.443 24.1C104.363 24.9133 104.823 26.04 104.823 27.48C104.823 28.4267 104.597 29.2667 104.143 30C103.703 30.7333 103.077 31.3067 102.263 31.72C101.463 32.12 100.55 32.32 99.5234 32.32C98.4567 32.32 97.5234 32.12 96.7234 31.72C95.9367 31.3067 95.3234 30.7267 94.8834 29.98C94.4567 29.22 94.2434 28.34 94.2434 27.34V18H97.9834V22.86ZM97.9834 27.14C97.9834 27.66 98.1167 28.0733 98.3834 28.38C98.6634 28.6867 99.0434 28.84 99.5234 28.84C99.99 28.84 100.363 28.72 100.643 28.48C100.937 28.2267 101.083 27.8933 101.083 27.48C101.083 27.0667 100.937 26.74 100.643 26.5C100.363 26.26 99.99 26.14 99.5234 26.14H97.9834V27.14ZM112.978 22.84C112.978 22.3067 112.838 21.8867 112.558 21.58C112.292 21.26 111.925 21.1 111.458 21.1C110.992 21.1 110.618 21.26 110.338 21.58C110.072 21.8867 109.938 22.3067 109.938 22.84V26.88L111.658 27.38C113.045 27.7667 114.058 28.34 114.698 29.1C115.352 29.86 115.685 30.8733 115.698 32.14H111.858C111.765 31.6867 111.545 31.3133 111.198 31.02C110.865 30.7267 110.392 30.5 109.778 30.34L108.338 29.94C107.632 29.74 107.085 29.3733 106.698 28.84C106.312 28.3067 106.118 27.6533 106.118 26.88V22.6C106.118 21.6 106.338 20.72 106.778 19.96C107.218 19.1867 107.838 18.5933 108.638 18.18C109.452 17.7533 110.392 17.54 111.458 17.54C112.525 17.54 113.458 17.7533 114.258 18.18C115.072 18.5933 115.698 19.1867 116.138 19.96C116.578 20.72 116.798 21.6 116.798 22.6V25.48H112.978V22.84ZM123.329 17.68C124.915 17.68 126.169 18.1067 127.089 18.96C128.009 19.8 128.469 20.9533 128.469 22.42V27.36C128.469 28.3467 128.249 29.2133 127.809 29.96C127.382 30.7067 126.769 31.2867 125.969 31.7C125.182 32.1133 124.269 32.32 123.229 32.32C122.189 32.32 121.269 32.1133 120.469 31.7C119.682 31.2867 119.069 30.7067 118.629 29.96C118.202 29.2133 117.989 28.3467 117.989 27.36V25.96H121.749V27.12C121.749 27.64 121.882 28.06 122.149 28.38C122.415 28.6867 122.775 28.84 123.229 28.84C123.682 28.84 124.042 28.6867 124.309 28.38C124.575 28.06 124.709 27.64 124.709 27.12V22.88C124.709 22.3333 124.589 21.9133 124.349 21.62C124.109 21.3133 123.769 21.16 123.329 21.16C122.889 21.16 122.549 21.3133 122.309 21.62C122.069 21.9133 121.949 22.3333 121.949 22.88V23.42H118.189V22.42C118.189 21.4867 118.402 20.66 118.829 19.94C119.255 19.22 119.855 18.6667 120.629 18.28C121.415 17.88 122.315 17.68 123.329 17.68ZM135.204 17.68C136.79 17.68 138.044 18.1067 138.964 18.96C139.884 19.8 140.344 20.9533 140.344 22.42V27.36C140.344 28.3467 140.124 29.2133 139.684 29.96C139.257 30.7067 138.644 31.2867 137.844 31.7C137.057 32.1133 136.144 32.32 135.104 32.32C134.064 32.32 133.144 32.1133 132.344 31.7C131.557 31.2867 130.944 30.7067 130.504 29.96C130.077 29.2133 129.864 28.3467 129.864 27.36V25.96H133.624V27.12C133.624 27.64 133.757 28.06 134.024 28.38C134.29 28.6867 134.65 28.84 135.104 28.84C135.557 28.84 135.917 28.6867 136.184 28.38C136.45 28.06 136.584 27.64 136.584 27.12V22.88C136.584 22.3333 136.464 21.9133 136.224 21.62C135.984 21.3133 135.644 21.16 135.204 21.16C134.764 21.16 134.424 21.3133 134.184 21.62C133.944 21.9133 133.824 22.3333 133.824 22.88V23.42H130.064V22.42C130.064 21.4867 130.277 20.66 130.704 19.94C131.13 19.22 131.73 18.6667 132.504 18.28C133.29 17.88 134.19 17.68 135.204 17.68ZM148.999 22.94C150.025 23.2067 150.832 23.7467 151.419 24.56C152.019 25.3733 152.319 26.3533 152.319 27.5C152.319 28.46 152.099 29.3067 151.659 30.04C151.219 30.76 150.592 31.32 149.779 31.72C148.979 32.12 148.045 32.32 146.979 32.32C145.912 32.32 144.972 32.12 144.159 31.72C143.359 31.32 142.739 30.76 142.299 30.04C141.859 29.3067 141.639 28.46 141.639 27.5C141.639 26.26 141.965 25.2267 142.619 24.4C143.272 23.5733 144.179 23.0533 145.339 22.84V21.94C145.339 21.5667 145.272 21.2733 145.139 21.06C145.005 20.8467 144.799 20.6133 144.519 20.36C144.225 20.08 144.005 19.82 143.859 19.58C143.712 19.3267 143.639 18.98 143.639 18.54V18H147.279V18.28C147.279 18.4933 147.332 18.68 147.439 18.84C147.559 19 147.739 19.2 147.979 19.44C148.312 19.76 148.565 20.06 148.739 20.34C148.912 20.62 148.999 20.9867 148.999 21.44V22.94ZM146.979 28.84C147.459 28.84 147.845 28.7067 148.139 28.44C148.432 28.16 148.579 27.8 148.579 27.36C148.579 26.92 148.432 26.5667 148.139 26.3C147.845 26.0333 147.459 25.9 146.979 25.9C146.499 25.9 146.112 26.0333 145.819 26.3C145.525 26.5667 145.379 26.92 145.379 27.36C145.379 27.8 145.525 28.16 145.819 28.44C146.112 28.7067 146.499 28.84 146.979 28.84ZM160.338 22.88C160.338 22.36 160.205 21.9467 159.938 21.64C159.672 21.32 159.312 21.16 158.858 21.16C158.405 21.16 158.045 21.32 157.778 21.64C157.512 21.9467 157.378 22.36 157.378 22.88V32H153.618V22.64C153.618 21.6533 153.832 20.7867 154.258 20.04C154.698 19.2933 155.312 18.7133 156.098 18.3C156.898 17.8867 157.818 17.68 158.858 17.68C159.898 17.68 160.812 17.8867 161.598 18.3C162.398 18.7133 163.012 19.2933 163.438 20.04C163.878 20.7867 164.098 21.6533 164.098 22.64V32H160.338V22.88Z" fill="url(#paint1_linear_11_17)"/>
<defs>
<linearGradient id="paint0_linear_11_17" x1="25" y1="0" x2="25" y2="50" gradientUnits="userSpaceOnUse">
<stop stop-color="#2868D4"/>
<stop offset="1" stop-color="#3DB7B2"/>
</linearGradient>
<linearGradient id="paint1_linear_11_17" x1="58" y1="25" x2="165" y2="25" gradientUnits="userSpaceOnUse">
<stop offset="0.0310401" stop-color="#2A8A8C"/>
<stop offset="0.537972" stop-color="#39B2E4"/>
<stop offset="0.984" stop-color="#2C76CE"/>
</linearGradient>
</defs>
</svg>
