<svg width="193" height="54" viewBox="0 0 193 54" fill="none" xmlns="http://www.w3.org/2000/svg">
<path d="M25 47.625V53.875L17.5 48.875L10 53.875V47.625H8.75C3.9175 47.625 0 43.7075 0 38.875V7.625C0 3.48288 3.35788 0.125 7.5 0.125H42.5C43.8807 0.125 45 1.2443 45 2.625V45.125C45 46.5057 43.8807 47.625 42.5 47.625H25ZM25 42.625H40V35.125H8.75C6.67893 35.125 5 36.804 5 38.875C5 40.946 6.67893 42.625 8.75 42.625H10V37.625H25V42.625ZM40 30.125V5.125H7.5V30.2135C7.90825 30.1553 8.3256 30.125 8.75 30.125H40ZM10 7.625H15V12.625H10V7.625ZM10 15.125H15V20.125H10V15.125ZM10 22.625H15V27.625H10V22.625Z" fill="url(#paint0_linear_11_20)"/>
<path d="M61.7237 26.84C62.2037 26.8667 62.6437 27.0333 63.0437 27.34C63.4437 27.6333 63.757 28.0267 63.9837 28.52C64.2237 29.0133 64.3437 29.5467 64.3437 30.12C64.3437 31.4267 63.857 32.4533 62.8837 33.2C61.9237 33.9467 60.597 34.32 58.9037 34.32C57.877 34.32 56.9637 34.12 56.1637 33.72C55.377 33.32 54.7637 32.76 54.3237 32.04C53.8837 31.32 53.6637 30.4933 53.6637 29.56V28.96H57.4037V29.2C57.4037 29.7067 57.5437 30.1067 57.8237 30.4C58.117 30.6933 58.5103 30.84 59.0037 30.84C59.4837 30.84 59.8703 30.7333 60.1637 30.52C60.457 30.2933 60.6037 30 60.6037 29.64C60.6037 29.2667 60.477 28.9733 60.2237 28.76C59.9703 28.5467 59.6237 28.44 59.1837 28.44H58.6437V25.3H59.1837C59.837 25.3 60.1637 25.0667 60.1637 24.6C60.1637 24.3333 60.0637 24.1333 59.8637 24C59.677 23.8667 59.3637 23.7133 58.9237 23.54C58.4437 23.3667 58.0437 23.1867 57.7237 23C57.417 22.8133 57.1437 22.52 56.9037 22.12C56.677 21.7067 56.5637 21.1667 56.5637 20.5V20H60.3037V20.08C60.3037 20.32 60.397 20.52 60.5837 20.68C60.7837 20.84 61.1103 21.0333 61.5637 21.26C62.0437 21.5 62.437 21.7333 62.7437 21.96C63.0637 22.1867 63.337 22.5 63.5637 22.9C63.8037 23.2867 63.9237 23.7733 63.9237 24.36C63.9237 25.04 63.7437 25.58 63.3837 25.98C63.0237 26.38 62.4703 26.6667 61.7237 26.84ZM77.6257 19.68C78.4657 19.68 79.219 19.8867 79.8857 20.3C80.5657 20.7 81.0924 21.2667 81.4657 22C81.8524 22.72 82.0457 23.5333 82.0457 24.44V34H78.2857V24.68C78.2857 24.2 78.1724 23.8267 77.9457 23.56C77.7324 23.2933 77.419 23.16 77.0057 23.16C76.5924 23.16 76.2724 23.2933 76.0457 23.56C75.8324 23.8267 75.7257 24.2 75.7257 24.68V31.14H71.9657V24.68C71.9657 24.2 71.8524 23.8267 71.6257 23.56C71.4124 23.2933 71.099 23.16 70.6857 23.16C70.2724 23.16 69.9524 23.2933 69.7257 23.56C69.5124 23.8267 69.4057 24.2 69.4057 24.68V34H65.6457V24.44C65.6457 23.5333 65.8324 22.72 66.2057 22C66.5924 21.2667 67.119 20.7 67.7857 20.3C68.4657 19.8867 69.2257 19.68 70.0657 19.68C71.0524 19.68 71.8724 19.8733 72.5257 20.26C73.179 20.6333 73.619 21.1867 73.8457 21.92C74.0724 21.1867 74.5124 20.6333 75.1657 20.26C75.819 19.8733 76.639 19.68 77.6257 19.68ZM95.4335 24.58C96.3002 24.58 97.0668 24.7667 97.7335 25.14C98.4135 25.5133 98.9335 26.04 99.2935 26.72C99.6668 27.3867 99.8535 28.16 99.8535 29.04V34H96.0935V29.58C96.0935 29.1 95.9802 28.7267 95.7535 28.46C95.5402 28.1933 95.2268 28.06 94.8135 28.06C94.4002 28.06 94.0802 28.1933 93.8535 28.46C93.6402 28.7267 93.5335 29.1 93.5335 29.58V32.36H89.7735V29.58C89.7735 29.1 89.6602 28.7267 89.4335 28.46C89.2202 28.1933 88.9068 28.06 88.4935 28.06C88.0802 28.06 87.7602 28.1933 87.5335 28.46C87.3202 28.7267 87.2135 29.1 87.2135 29.58V34H83.4535V26.1C83.4535 24.9 83.7268 23.84 84.2735 22.92C84.8335 22 85.6068 21.2867 86.5935 20.78C87.5802 20.26 88.7135 20 89.9935 20H97.1135V23.3H89.3535C88.6602 23.3 88.0802 23.4867 87.6135 23.86C87.1602 24.22 86.9602 24.6667 87.0135 25.2C87.2402 24.7867 87.8135 24.58 88.7335 24.58C89.4002 24.58 90.0068 24.7867 90.5535 25.2C91.1002 25.6133 91.4668 26.16 91.6535 26.84C91.8668 26.0933 92.3002 25.5333 92.9535 25.16C93.6068 24.7733 94.4335 24.58 95.4335 24.58ZM109.931 20.44C111.038 20.5867 112.031 20.98 112.911 21.62C113.805 22.26 114.498 23.0667 114.991 24.04C115.498 25.0133 115.751 26.0533 115.751 27.16C115.751 28.5067 115.425 29.7267 114.771 30.82C114.131 31.9133 113.245 32.7733 112.111 33.4C110.991 34.0133 109.738 34.32 108.351 34.32C106.965 34.32 105.705 34.0133 104.571 33.4C103.451 32.7733 102.565 31.9133 101.911 30.82C101.271 29.7267 100.951 28.5067 100.951 27.16C100.951 26 101.198 24.94 101.691 23.98C102.185 23.0067 102.871 22.2133 103.751 21.6C104.631 20.9733 105.638 20.5867 106.771 20.44L106.671 19.68H110.051L109.931 20.44ZM108.351 30.84C109.471 30.84 110.358 30.4933 111.011 29.8C111.678 29.1067 112.011 28.1667 112.011 26.98C112.011 26.0333 111.831 25.2733 111.471 24.7C111.111 24.1267 110.605 23.7733 109.951 23.64L110.071 28.24H106.651L106.751 23.64C106.085 23.7733 105.571 24.1267 105.211 24.7C104.865 25.2733 104.691 26.0333 104.691 26.98C104.691 28.1667 105.018 29.1067 105.671 29.8C106.338 30.4933 107.231 30.84 108.351 30.84ZM129.252 27C129.985 27.0533 130.565 27.3667 130.992 27.94C131.432 28.5133 131.652 29.24 131.652 30.12C131.652 31.4667 131.125 32.5067 130.072 33.24C129.032 33.96 127.539 34.32 125.592 34.32C123.699 34.32 122.252 33.9467 121.252 33.2C120.265 32.4533 119.759 31.36 119.732 29.92H123.512C123.592 30.28 123.819 30.56 124.192 30.76C124.565 30.9467 125.065 31.04 125.692 31.04C126.385 31.04 126.925 30.9133 127.312 30.66C127.699 30.3933 127.892 30.0267 127.892 29.56C127.892 29.2267 127.799 28.96 127.612 28.76C127.425 28.56 127.172 28.46 126.852 28.46H126.932V25.3H127.192C127.512 25.3 127.772 25.2133 127.972 25.04C128.185 24.8533 128.292 24.6067 128.292 24.3C128.292 23.9533 128.192 23.68 127.992 23.48C127.792 23.2667 127.525 23.16 127.192 23.16C126.832 23.16 126.545 23.2667 126.332 23.48C126.132 23.6933 126.032 23.98 126.032 24.34V24.86C126.032 26.0867 125.619 27.06 124.792 27.78C123.979 28.5 122.879 28.86 121.492 28.86C120.585 28.86 119.772 28.6667 119.052 28.28C118.332 27.8933 117.765 27.36 117.352 26.68C116.952 25.9867 116.752 25.2067 116.752 24.34C116.752 23.4467 116.932 22.6467 117.292 21.94C117.665 21.2333 118.179 20.68 118.832 20.28C119.499 19.88 120.252 19.68 121.092 19.68C121.865 19.68 122.525 19.8267 123.072 20.12C123.632 20.4133 124.072 20.9467 124.392 21.72C124.819 20.36 125.999 19.68 127.932 19.68C128.719 19.68 129.419 19.8467 130.032 20.18C130.659 20.5 131.152 20.9533 131.512 21.54C131.872 22.1133 132.059 22.7667 132.072 23.5C132.072 24.42 131.839 25.1667 131.372 25.74C130.905 26.3133 130.199 26.7333 129.252 27ZM121.492 25.66C121.839 25.66 122.119 25.54 122.332 25.3C122.559 25.0467 122.672 24.7267 122.672 24.34C122.672 23.9667 122.559 23.66 122.332 23.42C122.119 23.1667 121.839 23.04 121.492 23.04C121.132 23.04 120.845 23.16 120.632 23.4C120.419 23.64 120.312 23.9533 120.312 24.34C120.312 24.7267 120.419 25.0467 120.632 25.3C120.845 25.54 121.132 25.66 121.492 25.66ZM145.36 19.68C146.2 19.68 146.953 19.8867 147.62 20.3C148.3 20.7 148.827 21.2667 149.2 22C149.587 22.72 149.78 23.5333 149.78 24.44V34H146.02V24.68C146.02 24.2 145.907 23.8267 145.68 23.56C145.467 23.2933 145.153 23.16 144.74 23.16C144.327 23.16 144.007 23.2933 143.78 23.56C143.567 23.8267 143.46 24.2 143.46 24.68V31.14H139.7V24.68C139.7 24.2 139.587 23.8267 139.36 23.56C139.147 23.2933 138.833 23.16 138.42 23.16C138.007 23.16 137.687 23.2933 137.46 23.56C137.247 23.8267 137.14 24.2 137.14 24.68V34H133.38V24.44C133.38 23.5333 133.567 22.72 133.94 22C134.327 21.2667 134.853 20.7 135.52 20.3C136.2 19.8867 136.96 19.68 137.8 19.68C138.787 19.68 139.607 19.8733 140.26 20.26C140.913 20.6333 141.353 21.1867 141.58 21.92C141.807 21.1867 142.247 20.6333 142.9 20.26C143.553 19.8733 144.373 19.68 145.36 19.68ZM158.248 24.84C158.248 24.3067 158.108 23.8867 157.828 23.58C157.561 23.26 157.195 23.1 156.728 23.1C156.261 23.1 155.888 23.26 155.608 23.58C155.341 23.8867 155.208 24.3067 155.208 24.84V28.88L156.928 29.38C158.315 29.7667 159.328 30.34 159.968 31.1C160.621 31.86 160.955 32.8733 160.968 34.14H157.128C157.035 33.6867 156.815 33.3133 156.468 33.02C156.135 32.7267 155.661 32.5 155.048 32.34L153.608 31.94C152.901 31.74 152.355 31.3733 151.968 30.84C151.581 30.3067 151.388 29.6533 151.388 28.88V24.6C151.388 23.6 151.608 22.72 152.048 21.96C152.488 21.1867 153.108 20.5933 153.908 20.18C154.721 19.7533 155.661 19.54 156.728 19.54C157.795 19.54 158.728 19.7533 159.528 20.18C160.341 20.5933 160.968 21.1867 161.408 21.96C161.848 22.72 162.068 23.6 162.068 24.6V27.48H158.248V24.84ZM170.178 24.88C170.178 24.36 170.045 23.9467 169.778 23.64C169.512 23.32 169.152 23.16 168.698 23.16C168.245 23.16 167.885 23.32 167.618 23.64C167.352 23.9467 167.218 24.36 167.218 24.88V34H163.458V24.64C163.458 23.6533 163.672 22.7867 164.098 22.04C164.538 21.2933 165.152 20.7133 165.938 20.3C166.738 19.8867 167.658 19.68 168.698 19.68C169.738 19.68 170.652 19.8867 171.438 20.3C172.238 20.7133 172.852 21.2933 173.278 22.04C173.718 22.7867 173.938 23.6533 173.938 24.64V34H170.178V24.88ZM187.509 19.68C188.349 19.68 189.102 19.8867 189.769 20.3C190.449 20.7 190.975 21.2667 191.349 22C191.735 22.72 191.929 23.5333 191.929 24.44V34H188.169V24.68C188.169 24.2 188.055 23.8267 187.829 23.56C187.615 23.2933 187.302 23.16 186.889 23.16C186.475 23.16 186.155 23.2933 185.929 23.56C185.715 23.8267 185.609 24.2 185.609 24.68V31.14H181.849V24.68C181.849 24.2 181.735 23.8267 181.509 23.56C181.295 23.2933 180.982 23.16 180.569 23.16C180.155 23.16 179.835 23.2933 179.609 23.56C179.395 23.8267 179.289 24.2 179.289 24.68V34H175.529V24.44C175.529 23.5333 175.715 22.72 176.089 22C176.475 21.2667 177.002 20.7 177.669 20.3C178.349 19.8867 179.109 19.68 179.949 19.68C180.935 19.68 181.755 19.8733 182.409 20.26C183.062 20.6333 183.502 21.1867 183.729 21.92C183.955 21.1867 184.395 20.6333 185.049 20.26C185.702 19.8733 186.522 19.68 187.509 19.68Z" fill="url(#paint1_linear_11_20)"/>
<defs>
<linearGradient id="paint0_linear_11_20" x1="22.5" y1="0.125" x2="22.5" y2="53.875" gradientUnits="userSpaceOnUse">
<stop stop-color="#2866D5"/>
<stop offset="1" stop-color="#3DB7B2"/>
</linearGradient>
<linearGradient id="paint1_linear_11_20" x1="53" y1="27" x2="193" y2="27" gradientUnits="userSpaceOnUse">
<stop stop-color="#286AD3"/>
<stop offset="1" stop-color="#2C8E8A"/>
</linearGradient>
</defs>
</svg>
