<svg width="97" height="20" viewBox="0 0 97 20" fill="none" xmlns="http://www.w3.org/2000/svg">
<path d="M10.3334 0C4.81052 0 0.333374 4.47715 0.333374 10C0.333374 14.9913 3.99022 19.1283 8.7709 19.8785V12.8906H6.2318V10H8.7709V7.79688C8.7709 5.29063 10.2638 3.90625 12.548 3.90625C13.6421 3.90625 14.7865 4.10156 14.7865 4.10156V6.5625H13.5255C12.2833 6.5625 11.8959 7.33334 11.8959 8.1242V10H14.6693L14.226 12.8906H11.8959V19.8785C16.6765 19.1283 20.3334 14.9913 20.3334 10C20.3334 4.47715 15.8562 0 10.3334 0Z" fill="white"/>
<path d="M27.3412 15.7986V5.20483H33.6068V6.07983H28.2474V10.0564H31.8959V10.9314H28.2474V15.7986H27.3412ZM39.099 12.283C38.9011 12.4496 38.6641 12.572 38.3881 12.6501C38.112 12.7231 37.8021 12.7595 37.4584 12.7595C36.8698 12.7595 36.448 12.8429 36.1927 13.0095C36.0417 13.1137 35.9297 13.2309 35.8568 13.3611C35.7839 13.4913 35.7474 13.6475 35.7474 13.8298C35.7474 14.21 35.8829 14.4835 36.1537 14.6501C36.4245 14.8116 36.8464 14.8923 37.4193 14.8923C37.6172 14.8923 37.8125 14.8819 38.0052 14.8611C38.198 14.835 38.3698 14.7934 38.5209 14.7361C38.7032 14.6632 38.8438 14.5538 38.9427 14.408C39.0469 14.2569 39.099 14.0642 39.099 13.8298V12.283ZM34.8802 10.2283C35.0261 10.0043 35.1771 9.8064 35.3334 9.63452C35.4896 9.46265 35.6511 9.32983 35.8177 9.23608C36.0573 9.10067 36.3047 8.9991 36.5599 8.9314C36.8151 8.86369 37.1016 8.82983 37.4193 8.82983C37.9193 8.82983 38.3412 8.88973 38.6849 9.00952C39.0287 9.12931 39.2839 9.30379 39.4506 9.53296C39.6068 9.76213 39.7344 10.0225 39.8334 10.3142C39.9375 10.6059 39.9896 10.9001 39.9896 11.197V15.7986H39.099V15.5095C38.6615 15.7022 38.1016 15.7986 37.4193 15.7986C37.0443 15.7986 36.6849 15.7491 36.3412 15.6501C36.0026 15.546 35.7266 15.408 35.5131 15.2361C35.2943 15.0538 35.1276 14.8403 35.0131 14.5955C34.8985 14.3455 34.8412 14.0903 34.8412 13.8298C34.8412 13.3142 35 12.8585 35.3177 12.4626C35.6094 12.0772 36.3099 11.8845 37.4193 11.8845C37.7318 11.8845 37.9948 11.8585 38.2084 11.8064C38.4271 11.7543 38.5938 11.684 38.7084 11.5955C38.8177 11.5069 38.9089 11.3949 38.9818 11.2595C39.0599 11.1241 39.099 10.9835 39.099 10.8376C39.099 10.6866 39.0599 10.5486 38.9818 10.4236C38.9089 10.2986 38.8151 10.1762 38.7006 10.0564C38.5808 9.94702 38.4115 9.86629 38.1927 9.81421C37.974 9.76213 37.7162 9.73608 37.4193 9.73608C37.2683 9.73608 37.1016 9.7465 36.9193 9.76733C36.7422 9.78817 36.5834 9.83244 36.4427 9.90015C36.3177 9.95223 36.1954 10.0356 36.0756 10.1501C35.961 10.2595 35.875 10.3871 35.8177 10.533L34.8802 10.2283ZM45.8881 10.4314C45.6954 10.2074 45.461 10.0356 45.1849 9.91577C44.9141 9.79598 44.6016 9.73608 44.2474 9.73608C43.9297 9.73608 43.6459 9.78817 43.3959 9.89233C43.1511 9.99129 42.9454 10.1371 42.7787 10.3298C42.4349 10.7205 42.2631 11.3845 42.2631 12.322C42.2631 12.7856 42.3099 13.184 42.4037 13.5173C42.5026 13.8455 42.6276 14.1085 42.7787 14.3064C42.9454 14.5095 43.1511 14.658 43.3959 14.7517C43.6459 14.8455 43.9297 14.8923 44.2474 14.8923C44.6172 14.8923 44.9349 14.8246 45.2006 14.6892C45.4662 14.5538 45.6954 14.3533 45.8881 14.0876L46.7552 14.3767C46.4427 14.8403 46.0756 15.1944 45.6537 15.4392C45.237 15.6788 44.7683 15.7986 44.2474 15.7986C43.4349 15.7986 42.7448 15.5069 42.1771 14.9236C41.9063 14.6423 41.7006 14.2882 41.5599 13.8611C41.4245 13.434 41.3568 12.921 41.3568 12.322C41.3568 11.7387 41.4219 11.2257 41.5521 10.783C41.6823 10.3403 41.8855 9.97827 42.1615 9.69702C42.4271 9.4314 42.7318 9.22046 43.0756 9.06421C43.4245 8.90796 43.8151 8.82983 44.2474 8.82983C44.7631 8.82983 45.2318 8.94963 45.6537 9.18921C46.0756 9.42879 46.4427 9.79077 46.7552 10.2751L45.8881 10.4314ZM52.9115 11.5251C52.8646 10.9106 52.6823 10.4705 52.3646 10.2048C52.198 10.0538 52.0026 9.93921 51.7787 9.86108C51.5599 9.77775 51.2943 9.73608 50.9818 9.73608C50.6797 9.73608 50.4089 9.77254 50.1693 9.84546C49.9349 9.91838 49.7344 10.0382 49.5677 10.2048C49.4219 10.3455 49.2995 10.5225 49.2006 10.7361C49.1068 10.9496 49.0469 11.2126 49.0209 11.5251H52.9115ZM53.4427 14.4392C52.823 15.3455 52.0026 15.7986 50.9818 15.7986C50.5547 15.7986 50.1719 15.7257 49.8334 15.5798C49.5 15.434 49.1927 15.2205 48.9115 14.9392C48.6407 14.6736 48.4349 14.322 48.2943 13.8845C48.1537 13.4418 48.0834 12.921 48.0834 12.322C48.0834 11.7387 48.1511 11.2257 48.2865 10.783C48.4219 10.335 48.625 9.97306 48.8959 9.69702C49.1719 9.42098 49.4792 9.20744 49.8177 9.0564C50.1563 8.90535 50.5443 8.82983 50.9818 8.82983C51.3881 8.82983 51.7657 8.90535 52.1146 9.0564C52.4636 9.20744 52.7787 9.42098 53.0599 9.69702C53.3099 9.95223 53.5026 10.309 53.6381 10.7673C53.7735 11.2257 53.8412 11.7725 53.8412 12.408H48.9896C48.9948 12.835 49.0443 13.2048 49.1381 13.5173C49.2318 13.8298 49.3646 14.0876 49.5365 14.2908C49.7084 14.4939 49.9141 14.6449 50.1537 14.7439C50.3985 14.8429 50.6745 14.8923 50.9818 14.8923C51.3516 14.8923 51.6693 14.8246 51.9349 14.6892C52.2006 14.5486 52.4245 14.3533 52.6068 14.1033L53.4427 14.4392ZM58.3724 9.73608C58.0599 9.73608 57.7839 9.79077 57.5443 9.90015C57.3047 10.0043 57.099 10.1475 56.9271 10.3298C56.7448 10.5278 56.612 10.8012 56.5287 11.1501C56.4506 11.4939 56.4115 11.8845 56.4115 12.322C56.4115 12.7647 56.4532 13.1554 56.5365 13.4939C56.625 13.8324 56.7552 14.1033 56.9271 14.3064C57.099 14.5095 57.3073 14.658 57.5521 14.7517C57.8021 14.8455 58.0756 14.8923 58.3724 14.8923C58.6693 14.8923 58.9375 14.8455 59.1771 14.7517C59.4219 14.658 59.6329 14.5095 59.8099 14.3064C59.9818 14.0929 60.1172 13.8246 60.2162 13.5017C60.3151 13.1736 60.3646 12.7804 60.3646 12.322C60.3646 11.8845 60.3177 11.4939 60.224 11.1501C60.1355 10.8012 59.9974 10.5278 59.8099 10.3298C59.6433 10.1632 59.4323 10.0225 59.1771 9.90796C58.9219 9.79338 58.6537 9.73608 58.3724 9.73608ZM55.4974 15.7986V5.20483H56.4115V9.73608C56.9427 9.13192 57.5964 8.82983 58.3724 8.82983C58.7787 8.82983 59.1589 8.90796 59.5131 9.06421C59.8724 9.22046 60.1823 9.4314 60.4427 9.69702C60.7084 9.97306 60.9089 10.335 61.0443 10.783C61.1797 11.2257 61.2474 11.7387 61.2474 12.322C61.2474 12.921 61.1771 13.434 61.0365 13.8611C60.9011 14.2882 60.7032 14.6423 60.4427 14.9236C59.9063 15.5069 59.2162 15.7986 58.3724 15.7986C57.5964 15.7986 56.9427 15.5017 56.4115 14.908V15.7986H55.4974ZM65.5131 9.73608C65.2006 9.73608 64.9167 9.78817 64.6615 9.89233C64.4115 9.99129 64.2058 10.1371 64.0443 10.3298C63.8933 10.5121 63.7683 10.7804 63.6693 11.1345C63.5704 11.4887 63.5209 11.8845 63.5209 12.322C63.5209 12.7804 63.5704 13.1762 63.6693 13.5095C63.7683 13.8429 63.8933 14.1085 64.0443 14.3064C64.2058 14.5199 64.4115 14.671 64.6615 14.7595C64.9115 14.8481 65.1954 14.8923 65.5131 14.8923C65.8047 14.8923 66.0756 14.8481 66.3256 14.7595C66.5756 14.671 66.7865 14.5199 66.9584 14.3064C67.3073 13.8949 67.4818 13.2335 67.4818 12.322C67.4818 11.8845 67.4375 11.4913 67.349 11.1423C67.2605 10.7882 67.1302 10.5173 66.9584 10.3298C66.7865 10.1423 66.5756 9.9965 66.3256 9.89233C66.0756 9.78817 65.8047 9.73608 65.5131 9.73608ZM62.6146 12.322C62.6146 11.7387 62.6823 11.2283 62.8177 10.7908C62.9532 10.3533 63.1615 9.98869 63.4427 9.69702C63.7188 9.42098 64.0261 9.20744 64.3646 9.0564C64.7032 8.90535 65.086 8.82983 65.5131 8.82983C65.9245 8.82983 66.3021 8.90535 66.6459 9.0564C66.9948 9.20223 67.3099 9.41577 67.5912 9.69702C67.8568 9.96265 68.0521 10.322 68.1771 10.7751C68.3073 11.2231 68.3724 11.7387 68.3724 12.322C68.3724 13.5043 68.112 14.3715 67.5912 14.9236C67.0391 15.5069 66.3464 15.7986 65.5131 15.7986C65.086 15.7986 64.7032 15.7257 64.3646 15.5798C64.0313 15.434 63.724 15.2205 63.4427 14.9392C63.1719 14.6736 62.9662 14.322 62.8256 13.8845C62.6849 13.4418 62.6146 12.921 62.6146 12.322ZM72.6537 9.73608C72.3412 9.73608 72.0573 9.78817 71.8021 9.89233C71.5521 9.99129 71.3464 10.1371 71.1849 10.3298C71.0339 10.5121 70.9089 10.7804 70.8099 11.1345C70.711 11.4887 70.6615 11.8845 70.6615 12.322C70.6615 12.7804 70.711 13.1762 70.8099 13.5095C70.9089 13.8429 71.0339 14.1085 71.1849 14.3064C71.3464 14.5199 71.5521 14.671 71.8021 14.7595C72.0521 14.8481 72.336 14.8923 72.6537 14.8923C72.9454 14.8923 73.2162 14.8481 73.4662 14.7595C73.7162 14.671 73.9271 14.5199 74.099 14.3064C74.448 13.8949 74.6224 13.2335 74.6224 12.322C74.6224 11.8845 74.5782 11.4913 74.4896 11.1423C74.4011 10.7882 74.2709 10.5173 74.099 10.3298C73.9271 10.1423 73.7162 9.9965 73.4662 9.89233C73.2162 9.78817 72.9454 9.73608 72.6537 9.73608ZM69.7552 12.322C69.7552 11.7387 69.823 11.2283 69.9584 10.7908C70.0938 10.3533 70.3021 9.98869 70.5834 9.69702C70.8594 9.42098 71.1667 9.20744 71.5052 9.0564C71.8438 8.90535 72.2266 8.82983 72.6537 8.82983C73.0651 8.82983 73.4427 8.90535 73.7865 9.0564C74.1355 9.20223 74.4506 9.41577 74.7318 9.69702C74.9974 9.96265 75.1927 10.322 75.3177 10.7751C75.448 11.2231 75.5131 11.7387 75.5131 12.322C75.5131 13.5043 75.2526 14.3715 74.7318 14.9236C74.1797 15.5069 73.487 15.7986 72.6537 15.7986C72.2266 15.7986 71.8438 15.7257 71.5052 15.5798C71.1719 15.434 70.8646 15.2205 70.5834 14.9392C70.3125 14.6736 70.1068 14.322 69.9662 13.8845C69.8256 13.4418 69.7552 12.921 69.7552 12.322ZM77.1693 15.7986V5.20483H78.0834V11.783L80.9037 8.82983H82.1146L80.1381 10.908L82.9349 15.7986H81.9271L79.5521 11.4392L78.0834 12.8298V15.7986H77.1693Z" fill="white"/>
</svg>
