<svg width="97" height="21" viewBox="0 0 97 21" fill="none" xmlns="http://www.w3.org/2000/svg">
<path d="M10.3334 7.87842C8.67599 7.87842 7.33337 9.22152 7.33337 10.8784C7.33337 12.5357 8.67649 13.8784 10.3334 13.8784C11.9907 13.8784 13.3334 12.5353 13.3334 10.8784C13.3334 9.22112 11.9903 7.87842 10.3334 7.87842ZM10.3334 5.87842C13.0938 5.87842 15.3334 8.11552 15.3334 10.8784C15.3334 13.6389 13.0963 15.8784 10.3334 15.8784C7.57291 15.8784 5.33337 13.6413 5.33337 10.8784C5.33337 8.11795 7.57048 5.87842 10.3334 5.87842ZM16.8334 5.62757C16.8334 6.31768 16.2726 6.87759 15.5834 6.87759C14.8933 6.87759 14.3334 6.31682 14.3334 5.62757C14.3334 4.93832 14.8941 4.37842 15.5834 4.37842C16.2717 4.37755 16.8334 4.93832 16.8334 5.62757ZM10.3334 2.87842C7.8589 2.87842 7.45557 2.88497 6.30466 2.93622C5.52054 2.97303 4.99492 3.07849 4.50655 3.26809C4.07255 3.43641 3.75948 3.6374 3.42591 3.97097C3.09106 4.30582 2.89043 4.61805 2.72279 5.05225C2.53275 5.54174 2.42732 6.06653 2.39117 6.84957C2.33942 7.95362 2.33337 8.33947 2.33337 10.8784C2.33337 13.3529 2.33992 13.7562 2.39116 14.907C2.42799 15.6908 2.53359 16.2172 2.72273 16.7044C2.89149 17.139 3.09289 17.4528 3.42485 17.7848C3.76102 18.1205 4.07418 18.3218 4.50426 18.4878C4.99858 18.6789 5.52387 18.7845 6.30451 18.8206C7.40857 18.8723 7.79443 18.8784 10.3334 18.8784C12.8079 18.8784 13.2112 18.8718 14.362 18.8206C15.1441 18.7839 15.6709 18.678 16.1594 18.489C16.5928 18.3207 16.9076 18.1186 17.2398 17.7869C17.576 17.4502 17.7769 17.1378 17.9431 16.7067C18.1337 16.2142 18.2395 15.6882 18.2756 14.9073C18.3273 13.8032 18.3334 13.4173 18.3334 10.8784C18.3334 8.40394 18.3268 8.00063 18.2756 6.84979C18.2388 6.06748 18.1329 5.53991 17.9437 5.0516C17.7758 4.6188 17.5741 4.30477 17.2408 3.97097C16.9054 3.63557 16.594 3.43535 16.1595 3.26784C15.6704 3.07796 15.1448 2.97238 14.3622 2.93623C13.2582 2.88447 12.8723 2.87842 10.3334 2.87842ZM10.3334 0.878418C13.05 0.878418 13.3892 0.888418 14.4559 0.938418C15.52 0.987588 16.2459 1.15592 16.8834 1.40342C17.5425 1.65759 18.0992 2.00092 18.655 2.55675C19.21 3.11259 19.5534 3.67092 19.8084 4.32842C20.055 4.96509 20.2234 5.69175 20.2734 6.75592C20.3209 7.82259 20.3334 8.16175 20.3334 10.8784C20.3334 13.5951 20.3234 13.9342 20.2734 15.0009C20.2242 16.0651 20.055 16.7909 19.8084 17.4284C19.5542 18.0876 19.21 18.6442 18.655 19.2001C18.0992 19.7551 17.54 20.0984 16.8834 20.3534C16.2459 20.6001 15.52 20.7684 14.4559 20.8184C13.3892 20.8659 13.05 20.8784 10.3334 20.8784C7.6167 20.8784 7.27753 20.8684 6.21087 20.8184C5.1467 20.7692 4.4217 20.6001 3.78337 20.3534C3.12503 20.0992 2.56753 19.7551 2.0117 19.2001C1.45587 18.6442 1.11337 18.0851 0.858374 17.4284C0.610874 16.7909 0.443374 16.0651 0.393374 15.0009C0.345874 13.9342 0.333374 13.5951 0.333374 10.8784C0.333374 8.16175 0.343374 7.82259 0.393374 6.75592C0.442534 5.69092 0.610874 4.96592 0.858374 4.32842C1.11253 3.67009 1.45587 3.11259 2.0117 2.55675C2.56753 2.00092 3.12587 1.65842 3.78337 1.40342C4.42087 1.15592 5.14587 0.988418 6.21087 0.938418C7.27753 0.890918 7.6167 0.878418 10.3334 0.878418Z" fill="white"/>
<path d="M27.3412 16.7378V6.14404H28.2318V16.7378H27.3412ZM30.0365 16.7378V9.76904H30.9271V10.6753C31.4688 10.0711 32.1302 9.76904 32.9115 9.76904C33.323 9.76904 33.7058 9.84717 34.0599 10.0034C34.4141 10.1597 34.7214 10.3706 34.9818 10.6362C35.2474 10.9123 35.4506 11.2743 35.5912 11.7222C35.737 12.1649 35.8099 12.6779 35.8099 13.2612V16.7378H34.9115V13.2612C34.9115 12.8237 34.862 12.4305 34.7631 12.0815C34.6693 11.7274 34.5365 11.4565 34.3646 11.269C34.198 11.0972 33.987 10.9565 33.7318 10.8472C33.4766 10.7326 33.2032 10.6753 32.9115 10.6753C32.599 10.6753 32.3204 10.7274 32.0756 10.8315C31.8308 10.9305 31.625 11.0763 31.4584 11.269C31.2969 11.4513 31.1667 11.7196 31.0677 12.0737C30.974 12.4279 30.9271 12.8237 30.9271 13.2612V16.7378H30.0365ZM40.8881 11.2144C40.7526 11.0321 40.5651 10.8966 40.3256 10.8081C40.0912 10.7196 39.7969 10.6753 39.4427 10.6753C38.9115 10.6753 38.5521 10.7769 38.3646 10.98C38.1771 11.1675 38.0834 11.4279 38.0834 11.7612C38.0834 11.8394 38.125 11.9253 38.2084 12.019C38.2969 12.1128 38.4167 12.2118 38.5677 12.3159C38.724 12.4201 38.9089 12.5295 39.1224 12.644C39.3412 12.7534 39.5808 12.8706 39.8412 12.9956C40.1068 13.1206 40.3542 13.256 40.5834 13.4019C40.8125 13.5425 41.0079 13.6909 41.1693 13.8472C41.336 14.0034 41.4662 14.1623 41.5599 14.3237C41.6537 14.48 41.7006 14.6336 41.7006 14.7847C41.7006 15.0503 41.6589 15.3055 41.5756 15.5503C41.4922 15.7899 41.3672 16.0034 41.2006 16.1909C41.0495 16.3576 40.8204 16.4904 40.5131 16.5894C40.2058 16.6883 39.849 16.7378 39.4427 16.7378C38.9219 16.7378 38.4792 16.631 38.1146 16.4175C37.75 16.1987 37.461 15.8602 37.2474 15.4019L38.0599 15.144C38.1537 15.3784 38.3177 15.5529 38.5521 15.6675C38.7865 15.7769 39.0834 15.8315 39.4427 15.8315C39.9115 15.8315 40.2579 15.7586 40.4818 15.6128C40.711 15.4618 40.8256 15.1857 40.8256 14.7847C40.8256 14.6909 40.7761 14.592 40.6771 14.4878C40.5834 14.3836 40.4558 14.2795 40.2943 14.1753C40.1381 14.0659 39.9532 13.9565 39.7396 13.8472C39.5261 13.7378 39.3021 13.6336 39.0677 13.5347C38.7865 13.4097 38.5287 13.2743 38.2943 13.1284C38.0599 12.9826 37.8594 12.8341 37.6927 12.6831C37.5261 12.5269 37.3959 12.3706 37.3021 12.2144C37.2136 12.0581 37.1693 11.9071 37.1693 11.7612C37.1693 11.4644 37.2136 11.1961 37.3021 10.9565C37.3907 10.7118 37.5131 10.5034 37.6693 10.3315C37.836 10.1493 38.0704 10.0112 38.3724 9.91748C38.6745 9.81852 39.0313 9.76904 39.4427 9.76904C39.9584 9.76904 40.4011 9.85238 40.7709 10.019C41.1407 10.1805 41.4375 10.4331 41.6615 10.7769L40.8881 11.2144ZM45.1849 7.35498V9.76904H47.0131V10.6753H45.1849V14.4722C45.1849 14.7222 45.2032 14.9383 45.2396 15.1206C45.2813 15.3029 45.3464 15.4435 45.4349 15.5425C45.5235 15.6466 45.6329 15.7222 45.7631 15.769C45.8933 15.8107 46.0391 15.8315 46.2006 15.8315C46.3516 15.8315 46.4948 15.8263 46.6302 15.8159C46.7657 15.8003 46.8933 15.7743 47.0131 15.7378V16.5581C46.8099 16.6779 46.5391 16.7378 46.2006 16.7378C45.9245 16.7378 45.6667 16.7013 45.4271 16.6284C45.1927 16.5503 44.9844 16.4201 44.8021 16.2378C44.6198 16.0503 44.4948 15.8107 44.4271 15.519C44.3594 15.2274 44.3256 14.8784 44.3256 14.4722V10.6753H43.0599V9.76904H44.3256V7.35498H45.1849ZM52.6302 13.2222C52.4323 13.3888 52.1954 13.5112 51.9193 13.5894C51.6433 13.6623 51.3334 13.6987 50.9896 13.6987C50.4011 13.6987 49.9792 13.7821 49.724 13.9487C49.573 14.0529 49.461 14.1701 49.3881 14.3003C49.3151 14.4305 49.2787 14.5868 49.2787 14.769C49.2787 15.1493 49.4141 15.4227 49.6849 15.5894C49.9558 15.7508 50.3776 15.8315 50.9506 15.8315C51.1485 15.8315 51.3438 15.8211 51.5365 15.8003C51.7292 15.7743 51.9011 15.7326 52.0521 15.6753C52.2344 15.6024 52.375 15.493 52.474 15.3472C52.5782 15.1961 52.6302 15.0034 52.6302 14.769V13.2222ZM48.4115 11.1675C48.5573 10.9435 48.7084 10.7456 48.8646 10.5737C49.0209 10.4019 49.1823 10.269 49.349 10.1753C49.5886 10.0399 49.836 9.93831 50.0912 9.87061C50.3464 9.8029 50.6329 9.76904 50.9506 9.76904C51.4506 9.76904 51.8724 9.82894 52.2162 9.94873C52.5599 10.0685 52.8151 10.243 52.9818 10.4722C53.1381 10.7013 53.2657 10.9618 53.3646 11.2534C53.4688 11.5451 53.5209 11.8394 53.5209 12.1362V16.7378H52.6302V16.4487C52.1927 16.6414 51.6329 16.7378 50.9506 16.7378C50.5756 16.7378 50.2162 16.6883 49.8724 16.5894C49.5339 16.4852 49.2579 16.3472 49.0443 16.1753C48.8256 15.993 48.6589 15.7795 48.5443 15.5347C48.4297 15.2847 48.3724 15.0295 48.3724 14.769C48.3724 14.2534 48.5313 13.7977 48.849 13.4019C49.1407 13.0164 49.8412 12.8237 50.9506 12.8237C51.2631 12.8237 51.5261 12.7977 51.7396 12.7456C51.9584 12.6935 52.125 12.6232 52.2396 12.5347C52.349 12.4461 52.4401 12.3341 52.5131 12.1987C52.5912 12.0633 52.6302 11.9227 52.6302 11.7769C52.6302 11.6258 52.5912 11.4878 52.5131 11.3628C52.4401 11.2378 52.3464 11.1154 52.2318 10.9956C52.112 10.8862 51.9427 10.8055 51.724 10.7534C51.5052 10.7013 51.2474 10.6753 50.9506 10.6753C50.7995 10.6753 50.6329 10.6857 50.4506 10.7065C50.2735 10.7274 50.1146 10.7716 49.974 10.8394C49.849 10.8914 49.7266 10.9748 49.6068 11.0894C49.4922 11.1987 49.4063 11.3263 49.349 11.4722L48.4115 11.1675ZM56.5287 19.3628C56.9766 19.3628 57.3959 19.3394 57.7865 19.2925C58.1823 19.2508 58.5261 19.1675 58.8177 19.0425C59.1094 18.9175 59.3386 18.743 59.5052 18.519C59.6771 18.2951 59.7631 18.0034 59.7631 17.644V15.8472C59.4974 16.144 59.2032 16.368 58.8802 16.519C58.5625 16.6649 58.2006 16.7378 57.7943 16.7378C57.3672 16.7378 56.9844 16.6649 56.6459 16.519C56.3125 16.3732 56.0052 16.1597 55.724 15.8784C55.4532 15.6128 55.2474 15.2612 55.1068 14.8237C54.9662 14.381 54.8959 13.8602 54.8959 13.2612C54.8959 12.6779 54.9636 12.1675 55.099 11.73C55.2344 11.2925 55.4427 10.9279 55.724 10.6362C56 10.3602 56.3073 10.1466 56.6459 9.99561C56.9844 9.84456 57.3672 9.76904 57.7943 9.76904C58.2058 9.76904 58.5704 9.84456 58.8881 9.99561C59.2058 10.1466 59.4974 10.3784 59.7631 10.6909V9.76904H60.6537V17.605C60.6537 18.0008 60.5938 18.3394 60.474 18.6206C60.3542 18.9071 60.1901 19.1466 59.9818 19.3394C59.7787 19.5321 59.5417 19.6857 59.2709 19.8003C59 19.9149 58.711 20.0008 58.4037 20.0581C58.0964 20.1206 57.7813 20.1571 57.4584 20.1675C57.1407 20.1779 56.8308 20.1779 56.5287 20.1675V19.3628ZM57.7943 10.6753C57.4818 10.6753 57.198 10.7274 56.9427 10.8315C56.6927 10.9305 56.487 11.0763 56.3256 11.269C56.1745 11.4513 56.0495 11.7196 55.9506 12.0737C55.8516 12.4279 55.8021 12.8237 55.8021 13.2612C55.8021 13.7196 55.8516 14.1154 55.9506 14.4487C56.0495 14.7821 56.1745 15.0477 56.3256 15.2456C56.487 15.4591 56.6927 15.6102 56.9427 15.6987C57.1927 15.7873 57.4766 15.8315 57.7943 15.8315C58.086 15.8315 58.3568 15.7873 58.6068 15.6987C58.8568 15.6102 59.0677 15.4591 59.2396 15.2456C59.5886 14.8341 59.7631 14.1727 59.7631 13.2612C59.7631 12.8237 59.7188 12.4305 59.6302 12.0815C59.5417 11.7274 59.4115 11.4565 59.2396 11.269C59.0677 11.0815 58.8568 10.9357 58.6068 10.8315C58.3568 10.7274 58.086 10.6753 57.7943 10.6753ZM62.3959 16.7378V9.76904H63.2709V10.6753C63.5521 10.3576 63.8542 10.1284 64.1771 9.98779C64.5 9.84196 64.8594 9.76904 65.2552 9.76904C65.7136 9.76904 66.1068 9.83675 66.4349 9.97217C66.7683 10.1076 67.0625 10.3159 67.3177 10.5972L66.8099 11.269C66.6016 11.0763 66.3724 10.9305 66.1224 10.8315C65.8724 10.7274 65.5834 10.6753 65.2552 10.6753C64.9427 10.6753 64.6667 10.7274 64.4271 10.8315C64.1927 10.9305 63.9844 11.0763 63.8021 11.269C63.6198 11.467 63.4844 11.7326 63.3959 12.0659C63.3125 12.3993 63.2709 12.7977 63.2709 13.2612V16.7378H62.3959ZM72.9115 13.2222C72.7136 13.3888 72.4766 13.5112 72.2006 13.5894C71.9245 13.6623 71.6146 13.6987 71.2709 13.6987C70.6823 13.6987 70.2605 13.7821 70.0052 13.9487C69.8542 14.0529 69.7422 14.1701 69.6693 14.3003C69.5964 14.4305 69.5599 14.5868 69.5599 14.769C69.5599 15.1493 69.6954 15.4227 69.9662 15.5894C70.237 15.7508 70.6589 15.8315 71.2318 15.8315C71.4297 15.8315 71.625 15.8211 71.8177 15.8003C72.0105 15.7743 72.1823 15.7326 72.3334 15.6753C72.5157 15.6024 72.6563 15.493 72.7552 15.3472C72.8594 15.1961 72.9115 15.0034 72.9115 14.769V13.2222ZM68.6927 11.1675C68.8386 10.9435 68.9896 10.7456 69.1459 10.5737C69.3021 10.4019 69.4636 10.269 69.6302 10.1753C69.8698 10.0399 70.1172 9.93831 70.3724 9.87061C70.6276 9.8029 70.9141 9.76904 71.2318 9.76904C71.7318 9.76904 72.1537 9.82894 72.4974 9.94873C72.8412 10.0685 73.0964 10.243 73.2631 10.4722C73.4193 10.7013 73.5469 10.9618 73.6459 11.2534C73.75 11.5451 73.8021 11.8394 73.8021 12.1362V16.7378H72.9115V16.4487C72.474 16.6414 71.9141 16.7378 71.2318 16.7378C70.8568 16.7378 70.4974 16.6883 70.1537 16.5894C69.8151 16.4852 69.5391 16.3472 69.3256 16.1753C69.1068 15.993 68.9401 15.7795 68.8256 15.5347C68.711 15.2847 68.6537 15.0295 68.6537 14.769C68.6537 14.2534 68.8125 13.7977 69.1302 13.4019C69.4219 13.0164 70.1224 12.8237 71.2318 12.8237C71.5443 12.8237 71.8073 12.7977 72.0209 12.7456C72.2396 12.6935 72.4063 12.6232 72.5209 12.5347C72.6302 12.4461 72.7214 12.3341 72.7943 12.1987C72.8724 12.0633 72.9115 11.9227 72.9115 11.7769C72.9115 11.6258 72.8724 11.4878 72.7943 11.3628C72.7214 11.2378 72.6276 11.1154 72.5131 10.9956C72.3933 10.8862 72.224 10.8055 72.0052 10.7534C71.7865 10.7013 71.5287 10.6753 71.2318 10.6753C71.0808 10.6753 70.9141 10.6857 70.7318 10.7065C70.5547 10.7274 70.3959 10.7716 70.2552 10.8394C70.1302 10.8914 70.0079 10.9748 69.8881 11.0894C69.7735 11.1987 69.6875 11.3263 69.6302 11.4722L68.6927 11.1675ZM75.2865 16.7378V9.76904H76.1615V10.6753C76.7188 10.0711 77.3855 9.76904 78.1615 9.76904C78.698 9.76904 79.1641 9.89404 79.5599 10.144C79.961 10.394 80.3021 10.7196 80.5834 11.1206C80.724 10.9227 80.8776 10.7404 81.0443 10.5737C81.2162 10.4071 81.4011 10.2638 81.599 10.144C81.7969 10.0243 82.0131 9.93311 82.2474 9.87061C82.4818 9.8029 82.737 9.76904 83.0131 9.76904C83.4401 9.76904 83.8256 9.84717 84.1693 10.0034C84.5131 10.1597 84.8151 10.3706 85.0756 10.6362C85.3412 10.9175 85.5417 11.2795 85.6771 11.7222C85.8125 12.1649 85.8802 12.6779 85.8802 13.2612V16.7378H85.0052V13.2612C85.0052 12.7977 84.961 12.3966 84.8724 12.0581C84.7891 11.7144 84.6641 11.4513 84.4974 11.269C84.3099 11.0763 84.0938 10.9305 83.849 10.8315C83.6042 10.7274 83.3256 10.6753 83.0131 10.6753C82.7162 10.6753 82.448 10.73 82.2084 10.8394C81.9688 10.9435 81.7579 11.0868 81.5756 11.269C81.3881 11.467 81.2526 11.7326 81.1693 12.0659C81.086 12.3993 81.0443 12.7977 81.0443 13.2612V16.7378H80.1615V13.2612C80.1615 12.8185 80.112 12.4227 80.0131 12.0737C79.9193 11.7248 79.7865 11.4565 79.6146 11.269C79.448 11.0815 79.2422 10.9357 78.9974 10.8315C78.7526 10.7274 78.474 10.6753 78.1615 10.6753C77.8438 10.6753 77.5677 10.7274 77.3334 10.8315C77.099 10.9305 76.8907 11.0763 76.7084 11.269C76.3438 11.6649 76.1615 12.3289 76.1615 13.2612V16.7378H75.2865Z" fill="white"/>
</svg>
