<svg width="1280" height="500" viewBox="0 0 1280 500" fill="none" xmlns="http://www.w3.org/2000/svg">
<g clip-path="url(#clip0_1_4)">
<path d="M0 30C0 13.4315 13.4315 0 30 0H1250C1266.57 0 1280 13.4315 1280 30V500H0V30Z" fill="url(#paint0_linear_1_4)"/>
<g filter="url(#filter0_bf_1_4)">
<circle cx="875.5" cy="217.5" r="146.5" fill="#39B1E4"/>
</g>
<g filter="url(#filter1_f_1_4)">
<circle cx="923.5" cy="170.5" r="50.5" fill="#84D0F0"/>
</g>
<g filter="url(#filter2_bf_1_4)">
<circle cx="96.9333" cy="70.9333" r="146.5" transform="rotate(61.2223 96.9333 70.9333)" fill="#39B1E4"/>
</g>
<g filter="url(#filter3_f_1_4)">
<circle cx="161.236" cy="90.3787" r="50.5" transform="rotate(61.2223 161.236 90.3787)" fill="#84D0F0"/>
</g>
<g filter="url(#filter4_f_1_4)">
<circle cx="177" cy="106" r="16" fill="#D0EAF5"/>
</g>
<g filter="url(#filter5_f_1_4)">
<circle cx="295.5" cy="404.5" r="50.5" fill="#39B1E4"/>
</g>
<g filter="url(#filter6_f_1_4)">
<circle cx="312" cy="395" r="16" fill="#84D0F0"/>
</g>
<g filter="url(#filter7_f_1_4)">
<circle cx="1154.5" cy="461.5" r="50.5" transform="rotate(-90 1154.5 461.5)" fill="#39B1E4"/>
</g>
<g filter="url(#filter8_f_1_4)">
<circle cx="1145" cy="445" r="16" transform="rotate(-90 1145 445)" fill="#84D0F0"/>
</g>
<path d="M443.992 148.8C446.272 148.8 448.348 149.352 450.22 150.456C452.092 151.56 453.556 153.072 454.612 154.992C455.692 156.912 456.232 159.048 456.232 161.4C456.232 163.752 455.692 165.888 454.612 167.808C453.556 169.728 452.092 171.24 450.22 172.344C448.348 173.448 446.272 174 443.992 174H433.552V148.8H443.992ZM443.992 167.016C445.456 167.016 446.656 166.5 447.592 165.468C448.552 164.412 449.032 163.056 449.032 161.4C449.032 159.744 448.552 158.4 447.592 157.368C446.656 156.312 445.456 155.784 443.992 155.784H441.112V167.016H443.992ZM461.923 154.632C460.915 154.632 460.039 154.272 459.295 153.552C458.575 152.808 458.215 151.944 458.215 150.96C458.215 149.976 458.575 149.124 459.295 148.404C460.039 147.66 460.915 147.288 461.923 147.288C462.907 147.288 463.759 147.66 464.479 148.404C465.223 149.124 465.595 149.976 465.595 150.96C465.595 151.944 465.223 152.808 464.479 153.552C463.759 154.272 462.907 154.632 461.923 154.632ZM465.235 156V174H458.575V156H465.235ZM474.546 161.292C474.546 161.58 474.738 161.796 475.122 161.94C475.506 162.084 476.106 162.228 476.922 162.372C478.194 162.612 479.274 162.9 480.162 163.236C481.074 163.548 481.866 164.112 482.538 164.928C483.21 165.744 483.546 166.86 483.546 168.276C483.546 169.788 483.126 171.012 482.286 171.948C481.47 172.884 480.45 173.544 479.226 173.928C478.002 174.312 476.742 174.504 475.446 174.504C473.334 174.504 471.57 174.18 470.154 173.532C468.762 172.86 467.718 171.756 467.022 170.22L472.818 167.628C473.274 168.852 474.126 169.464 475.374 169.464C475.758 169.464 476.058 169.392 476.274 169.248C476.49 169.104 476.598 168.912 476.598 168.672C476.598 168.384 476.406 168.168 476.022 168.024C475.662 167.856 475.062 167.676 474.222 167.484C473.022 167.22 471.99 166.92 471.126 166.584C470.262 166.224 469.506 165.648 468.858 164.856C468.234 164.064 467.922 163.008 467.922 161.688C467.922 160.368 468.282 159.24 469.002 158.304C469.722 157.368 470.646 156.672 471.774 156.216C472.926 155.736 474.126 155.496 475.374 155.496C477.27 155.496 478.866 155.844 480.162 156.54C481.482 157.236 482.49 158.412 483.186 160.068L477.678 162.048C477.246 161.04 476.574 160.536 475.662 160.536C475.302 160.536 475.026 160.608 474.834 160.752C474.642 160.872 474.546 161.052 474.546 161.292ZM494.36 174.504C492.56 174.504 490.928 174.096 489.464 173.28C488 172.44 486.848 171.3 486.008 169.86C485.168 168.396 484.748 166.776 484.748 165C484.748 163.224 485.168 161.616 486.008 160.176C486.848 158.712 488 157.572 489.464 156.756C490.928 155.916 492.56 155.496 494.36 155.496C496.136 155.496 497.756 155.928 499.22 156.792C500.708 157.632 501.848 158.772 502.64 160.212L497.024 163.416C496.76 162.96 496.388 162.6 495.908 162.336C495.452 162.048 494.936 161.904 494.36 161.904C493.52 161.904 492.812 162.204 492.236 162.804C491.684 163.38 491.408 164.112 491.408 165C491.408 165.888 491.684 166.632 492.236 167.232C492.812 167.808 493.52 168.096 494.36 168.096C494.936 168.096 495.464 167.952 495.944 167.664C496.424 167.376 496.784 167.004 497.024 166.548L502.64 169.788C501.848 171.252 500.708 172.404 499.22 173.244C497.756 174.084 496.136 174.504 494.36 174.504ZM512.818 174.504C511.066 174.504 509.446 174.084 507.958 173.244C506.47 172.404 505.294 171.264 504.43 169.824C503.566 168.384 503.134 166.776 503.134 165C503.134 163.224 503.566 161.616 504.43 160.176C505.294 158.712 506.458 157.572 507.922 156.756C509.41 155.916 511.042 155.496 512.818 155.496C514.594 155.496 516.214 155.916 517.678 156.756C519.166 157.572 520.342 158.712 521.206 160.176C522.07 161.616 522.502 163.224 522.502 165C522.502 166.776 522.07 168.396 521.206 169.86C520.342 171.3 519.166 172.44 517.678 173.28C516.214 174.096 514.594 174.504 512.818 174.504ZM512.818 168.168C513.706 168.168 514.426 167.88 514.978 167.304C515.554 166.704 515.842 165.936 515.842 165C515.842 164.064 515.554 163.308 514.978 162.732C514.426 162.132 513.706 161.832 512.818 161.832C511.93 161.832 511.198 162.132 510.622 162.732C510.07 163.308 509.794 164.064 509.794 165C509.794 165.936 510.07 166.704 510.622 167.304C511.198 167.88 511.93 168.168 512.818 168.168ZM536.135 174H529.295L522.455 156H529.835L532.715 165L535.595 156H542.975L536.135 174ZM549.452 167.268C549.788 167.964 550.268 168.444 550.892 168.708C551.516 168.948 552.26 169.068 553.124 169.068C553.7 169.068 554.228 168.984 554.708 168.816C555.188 168.648 555.68 168.348 556.184 167.916L560.54 171.588C559.628 172.572 558.5 173.304 557.156 173.784C555.836 174.264 554.42 174.504 552.908 174.504C550.868 174.504 549.068 174.096 547.508 173.28C545.972 172.44 544.784 171.312 543.944 169.896C543.128 168.456 542.72 166.848 542.72 165.072C542.72 163.272 543.128 161.652 543.944 160.212C544.784 158.748 545.924 157.596 547.364 156.756C548.828 155.916 550.472 155.496 552.296 155.496C554.096 155.496 555.704 155.916 557.12 156.756C558.56 157.572 559.676 158.7 560.468 160.14C561.284 161.556 561.692 163.152 561.692 164.928C561.692 165.72 561.596 166.5 561.404 167.268H549.452ZM555.392 162.984C554.984 161.544 554.012 160.824 552.476 160.824C551.756 160.824 551.12 161.004 550.568 161.364C550.016 161.724 549.608 162.264 549.344 162.984H555.392ZM570.317 159.492C570.653 158.268 571.313 157.32 572.297 156.648C573.281 155.976 574.421 155.64 575.717 155.64V162.84C575.333 162.792 575.045 162.768 574.853 162.768C573.581 162.768 572.501 163.152 571.613 163.92C570.749 164.688 570.317 165.816 570.317 167.304V174H563.657V156H570.317V159.492ZM597.707 174.576C595.259 174.576 593.015 174 590.975 172.848C588.935 171.672 587.315 170.088 586.115 168.096C584.939 166.08 584.351 163.848 584.351 161.4C584.351 158.952 584.939 156.732 586.115 154.74C587.315 152.724 588.935 151.14 590.975 149.988C593.015 148.812 595.259 148.224 597.707 148.224C600.155 148.224 602.399 148.812 604.439 149.988C606.479 151.14 608.087 152.724 609.263 154.74C610.463 156.732 611.063 158.952 611.063 161.4C611.063 163.848 610.463 166.08 609.263 168.096C608.087 170.088 606.479 171.672 604.439 172.848C602.399 174 600.155 174.576 597.707 174.576ZM597.707 167.52C598.883 167.52 599.939 167.256 600.875 166.728C601.811 166.2 602.543 165.468 603.071 164.532C603.599 163.596 603.863 162.552 603.863 161.4C603.863 160.248 603.599 159.204 603.071 158.268C602.543 157.332 601.811 156.6 600.875 156.072C599.939 155.544 598.883 155.28 597.707 155.28C596.531 155.28 595.475 155.544 594.539 156.072C593.603 156.6 592.871 157.332 592.343 158.268C591.815 159.204 591.551 160.248 591.551 161.4C591.551 162.552 591.815 163.596 592.343 164.532C592.871 165.468 593.603 166.2 594.539 166.728C595.475 167.256 596.531 167.52 597.707 167.52ZM624.887 155.496C626.855 155.496 628.427 156.18 629.603 157.548C630.803 158.892 631.403 160.908 631.403 163.596V174H624.743V164.316C624.743 163.524 624.539 162.924 624.131 162.516C623.747 162.108 623.207 161.904 622.511 161.904C621.719 161.904 621.107 162.156 620.675 162.66C620.267 163.164 620.063 163.86 620.063 164.748V174H613.403V156H620.063V157.764C621.167 156.252 622.775 155.496 624.887 155.496ZM639.98 167.268C640.316 167.964 640.796 168.444 641.42 168.708C642.044 168.948 642.788 169.068 643.652 169.068C644.228 169.068 644.756 168.984 645.236 168.816C645.716 168.648 646.208 168.348 646.712 167.916L651.068 171.588C650.156 172.572 649.028 173.304 647.684 173.784C646.364 174.264 644.948 174.504 643.436 174.504C641.396 174.504 639.596 174.096 638.036 173.28C636.5 172.44 635.312 171.312 634.472 169.896C633.656 168.456 633.248 166.848 633.248 165.072C633.248 163.272 633.656 161.652 634.472 160.212C635.312 158.748 636.452 157.596 637.892 156.756C639.356 155.916 641 155.496 642.824 155.496C644.624 155.496 646.232 155.916 647.648 156.756C649.088 157.572 650.204 158.7 650.996 160.14C651.812 161.556 652.22 163.152 652.22 164.928C652.22 165.72 652.124 166.5 651.932 167.268H639.98ZM645.92 162.984C645.512 161.544 644.54 160.824 643.004 160.824C642.284 160.824 641.648 161.004 641.096 161.364C640.544 161.724 640.136 162.264 639.872 162.984H645.92ZM674.207 174.576C671.759 174.576 669.515 174 667.475 172.848C665.435 171.672 663.815 170.088 662.615 168.096C661.439 166.08 660.851 163.848 660.851 161.4C660.851 158.952 661.439 156.732 662.615 154.74C663.815 152.724 665.435 151.14 667.475 149.988C669.515 148.812 671.759 148.224 674.207 148.224C676.655 148.224 678.899 148.812 680.939 149.988C682.979 151.14 684.587 152.724 685.763 154.74C686.963 156.732 687.563 158.952 687.563 161.4C687.563 163.848 686.963 166.08 685.763 168.096C684.587 170.088 682.979 171.672 680.939 172.848C678.899 174 676.655 174.576 674.207 174.576ZM674.207 167.52C675.383 167.52 676.439 167.256 677.375 166.728C678.311 166.2 679.043 165.468 679.571 164.532C680.099 163.596 680.363 162.552 680.363 161.4C680.363 160.248 680.099 159.204 679.571 158.268C679.043 157.332 678.311 156.6 677.375 156.072C676.439 155.544 675.383 155.28 674.207 155.28C673.031 155.28 671.975 155.544 671.039 156.072C670.103 156.6 669.371 157.332 668.843 158.268C668.315 159.204 668.051 160.248 668.051 161.4C668.051 162.552 668.315 163.596 668.843 164.532C669.371 165.468 670.103 166.2 671.039 166.728C671.975 167.256 673.031 167.52 674.207 167.52ZM700.343 154.2C699.479 154.128 698.795 154.26 698.291 154.596C697.811 154.932 697.571 155.4 697.571 156H700.343V162.336H697.571V174H690.911V162.336H688.823V156H690.911C690.911 153.552 691.631 151.644 693.071 150.276C694.511 148.884 696.611 148.188 699.371 148.188C699.803 148.188 700.127 148.2 700.343 148.224V154.2ZM721.053 155.784V174H713.853V155.784H707.913V148.8H726.993V155.784H721.053ZM740.27 155.496C742.238 155.496 743.81 156.18 744.986 157.548C746.186 158.892 746.786 160.908 746.786 163.596V174H740.126V164.316C740.126 163.524 739.922 162.924 739.514 162.516C739.13 162.108 738.59 161.904 737.894 161.904C737.102 161.904 736.49 162.156 736.058 162.66C735.65 163.164 735.446 163.86 735.446 164.748V174H728.786V148.8H735.446V157.764C736.55 156.252 738.158 155.496 740.27 155.496ZM755.362 167.268C755.698 167.964 756.178 168.444 756.802 168.708C757.426 168.948 758.17 169.068 759.034 169.068C759.61 169.068 760.138 168.984 760.618 168.816C761.098 168.648 761.59 168.348 762.094 167.916L766.45 171.588C765.538 172.572 764.41 173.304 763.066 173.784C761.746 174.264 760.33 174.504 758.818 174.504C756.778 174.504 754.978 174.096 753.418 173.28C751.882 172.44 750.694 171.312 749.854 169.896C749.038 168.456 748.63 166.848 748.63 165.072C748.63 163.272 749.038 161.652 749.854 160.212C750.694 158.748 751.834 157.596 753.274 156.756C754.738 155.916 756.382 155.496 758.206 155.496C760.006 155.496 761.614 155.916 763.03 156.756C764.47 157.572 765.586 158.7 766.378 160.14C767.194 161.556 767.602 163.152 767.602 164.928C767.602 165.72 767.506 166.5 767.314 167.268H755.362ZM761.302 162.984C760.894 161.544 759.922 160.824 758.386 160.824C757.666 160.824 757.03 161.004 756.478 161.364C755.926 161.724 755.518 162.264 755.254 162.984H761.302ZM793.334 161.004C794.366 161.604 795.158 162.384 795.71 163.344C796.286 164.28 796.574 165.36 796.574 166.584C796.574 168.888 795.818 170.7 794.306 172.02C792.818 173.34 790.646 174 787.79 174H777.134V148.8H787.142C789.974 148.8 792.134 149.412 793.622 150.636C795.11 151.86 795.854 153.612 795.854 155.892C795.854 158.076 795.014 159.78 793.334 161.004ZM784.334 158.376L787.106 158.34C787.562 158.292 787.934 158.136 788.222 157.872C788.51 157.584 788.654 157.188 788.654 156.684C788.654 156.132 788.462 155.712 788.078 155.424C787.694 155.136 787.238 154.992 786.71 154.992H784.334V158.376ZM787.358 167.808C787.934 167.808 788.414 167.64 788.798 167.304C789.182 166.968 789.374 166.536 789.374 166.008C789.374 165.504 789.23 165.108 788.942 164.82C788.654 164.508 788.258 164.316 787.754 164.244L784.334 164.208V167.808H787.358ZM804.862 167.268C805.198 167.964 805.678 168.444 806.302 168.708C806.926 168.948 807.67 169.068 808.534 169.068C809.11 169.068 809.638 168.984 810.118 168.816C810.598 168.648 811.09 168.348 811.594 167.916L815.95 171.588C815.038 172.572 813.91 173.304 812.566 173.784C811.246 174.264 809.83 174.504 808.318 174.504C806.278 174.504 804.478 174.096 802.918 173.28C801.382 172.44 800.194 171.312 799.354 169.896C798.538 168.456 798.13 166.848 798.13 165.072C798.13 163.272 798.538 161.652 799.354 160.212C800.194 158.748 801.334 157.596 802.774 156.756C804.238 155.916 805.882 155.496 807.706 155.496C809.506 155.496 811.114 155.916 812.53 156.756C813.97 157.572 815.086 158.7 815.878 160.14C816.694 161.556 817.102 163.152 817.102 164.928C817.102 165.72 817.006 166.5 816.814 167.268H804.862ZM810.802 162.984C810.394 161.544 809.422 160.824 807.886 160.824C807.166 160.824 806.53 161.004 805.978 161.364C805.426 161.724 805.018 162.264 804.754 162.984H810.802ZM824.808 161.292C824.808 161.58 825 161.796 825.384 161.94C825.768 162.084 826.368 162.228 827.184 162.372C828.456 162.612 829.536 162.9 830.424 163.236C831.336 163.548 832.128 164.112 832.8 164.928C833.472 165.744 833.808 166.86 833.808 168.276C833.808 169.788 833.388 171.012 832.548 171.948C831.732 172.884 830.712 173.544 829.488 173.928C828.264 174.312 827.004 174.504 825.708 174.504C823.596 174.504 821.832 174.18 820.416 173.532C819.024 172.86 817.98 171.756 817.284 170.22L823.08 167.628C823.536 168.852 824.388 169.464 825.636 169.464C826.02 169.464 826.32 169.392 826.536 169.248C826.752 169.104 826.86 168.912 826.86 168.672C826.86 168.384 826.668 168.168 826.284 168.024C825.924 167.856 825.324 167.676 824.484 167.484C823.284 167.22 822.252 166.92 821.388 166.584C820.524 166.224 819.768 165.648 819.12 164.856C818.496 164.064 818.184 163.008 818.184 161.688C818.184 160.368 818.544 159.24 819.264 158.304C819.984 157.368 820.908 156.672 822.036 156.216C823.188 155.736 824.388 155.496 825.636 155.496C827.532 155.496 829.128 155.844 830.424 156.54C831.744 157.236 832.752 158.412 833.448 160.068L827.94 162.048C827.508 161.04 826.836 160.536 825.924 160.536C825.564 160.536 825.288 160.608 825.096 160.752C824.904 160.872 824.808 161.052 824.808 161.292ZM843.374 166.224C843.374 166.944 843.566 167.436 843.95 167.7C844.358 167.94 844.994 168.06 845.858 168.06C846.41 168.06 846.842 168.048 847.154 168.024V174C846.05 174.168 844.97 174.252 843.914 174.252C841.346 174.252 839.498 173.64 838.37 172.416C837.266 171.168 836.714 169.224 836.714 166.584V162.336H834.194V156H836.714V152.94L843.374 150.96V156H847.154V162.336H843.374V166.224ZM508.639 220H493.159V194.8H500.359V213.016H508.639V220ZM516.212 213.268C516.548 213.964 517.028 214.444 517.652 214.708C518.276 214.948 519.02 215.068 519.884 215.068C520.46 215.068 520.988 214.984 521.468 214.816C521.948 214.648 522.44 214.348 522.944 213.916L527.3 217.588C526.388 218.572 525.26 219.304 523.916 219.784C522.596 220.264 521.18 220.504 519.668 220.504C517.628 220.504 515.828 220.096 514.268 219.28C512.732 218.44 511.544 217.312 510.704 215.896C509.888 214.456 509.48 212.848 509.48 211.072C509.48 209.272 509.888 207.652 510.704 206.212C511.544 204.748 512.684 203.596 514.124 202.756C515.588 201.916 517.232 201.496 519.056 201.496C520.856 201.496 522.464 201.916 523.88 202.756C525.32 203.572 526.436 204.7 527.228 206.14C528.044 207.556 528.452 209.152 528.452 210.928C528.452 211.72 528.356 212.5 528.164 213.268H516.212ZM522.152 208.984C521.744 207.544 520.772 206.824 519.236 206.824C518.516 206.824 517.88 207.004 517.328 207.364C516.776 207.724 516.368 208.264 516.104 208.984H522.152ZM549.423 220H542.763V218.38C541.611 219.796 540.003 220.504 537.939 220.504C536.331 220.504 534.903 220.096 533.655 219.28C532.407 218.44 531.435 217.3 530.739 215.86C530.043 214.42 529.695 212.8 529.695 211C529.695 209.2 530.043 207.58 530.739 206.14C531.435 204.7 532.407 203.572 533.655 202.756C534.903 201.916 536.331 201.496 537.939 201.496C540.003 201.496 541.611 202.204 542.763 203.62V202H549.423V220ZM539.559 214.384C540.519 214.384 541.287 214.06 541.863 213.412C542.463 212.764 542.763 211.96 542.763 211C542.763 210.04 542.463 209.236 541.863 208.588C541.287 207.94 540.519 207.616 539.559 207.616C538.599 207.616 537.819 207.94 537.219 208.588C536.643 209.236 536.355 210.04 536.355 211C536.355 211.96 536.643 212.764 537.219 213.412C537.819 214.06 538.599 214.384 539.559 214.384ZM558.979 205.492C559.315 204.268 559.975 203.32 560.959 202.648C561.943 201.976 563.083 201.64 564.379 201.64V208.84C563.995 208.792 563.707 208.768 563.515 208.768C562.243 208.768 561.163 209.152 560.275 209.92C559.411 210.688 558.979 211.816 558.979 213.304V220H552.319V202H558.979V205.492ZM577.83 201.496C579.798 201.496 581.37 202.18 582.546 203.548C583.746 204.892 584.346 206.908 584.346 209.596V220H577.686V210.316C577.686 209.524 577.482 208.924 577.074 208.516C576.69 208.108 576.15 207.904 575.454 207.904C574.662 207.904 574.05 208.156 573.618 208.66C573.21 209.164 573.006 209.86 573.006 210.748V220H566.346V202H573.006V203.764C574.11 202.252 575.718 201.496 577.83 201.496ZM590.401 200.632C589.393 200.632 588.517 200.272 587.773 199.552C587.053 198.808 586.693 197.944 586.693 196.96C586.693 195.976 587.053 195.124 587.773 194.404C588.517 193.66 589.393 193.288 590.401 193.288C591.385 193.288 592.237 193.66 592.957 194.404C593.701 195.124 594.073 195.976 594.073 196.96C594.073 197.944 593.701 198.808 592.957 199.552C592.237 200.272 591.385 200.632 590.401 200.632ZM593.713 202V220H587.053V202H593.713ZM608.065 201.496C610.033 201.496 611.605 202.18 612.781 203.548C613.981 204.892 614.581 206.908 614.581 209.596V220H607.921V210.316C607.921 209.524 607.717 208.924 607.309 208.516C606.925 208.108 606.385 207.904 605.689 207.904C604.897 207.904 604.285 208.156 603.853 208.66C603.445 209.164 603.241 209.86 603.241 210.748V220H596.581V202H603.241V203.764C604.345 202.252 605.953 201.496 608.065 201.496ZM636.405 219.46C636.405 221.356 635.961 222.928 635.073 224.176C634.185 225.424 633.021 226.336 631.581 226.912C630.165 227.488 628.629 227.776 626.973 227.776C624.861 227.776 622.989 227.392 621.357 226.624C619.725 225.856 618.513 224.776 617.721 223.384L623.121 220.252C623.577 220.876 624.081 221.32 624.633 221.584C625.209 221.872 625.869 222.016 626.613 222.016C627.453 222.016 628.185 221.8 628.809 221.368C629.433 220.96 629.745 220.324 629.745 219.46V217.66C628.593 219.076 626.985 219.784 624.921 219.784C623.337 219.784 621.909 219.376 620.637 218.56C619.389 217.744 618.417 216.64 617.721 215.248C617.025 213.856 616.677 212.32 616.677 210.64C616.677 208.96 617.025 207.424 617.721 206.032C618.417 204.64 619.389 203.536 620.637 202.72C621.909 201.904 623.337 201.496 624.921 201.496C626.985 201.496 628.593 202.204 629.745 203.62V202H636.405V219.46ZM626.541 213.88C627.501 213.88 628.269 213.568 628.845 212.944C629.445 212.32 629.745 211.552 629.745 210.64C629.745 209.728 629.445 208.96 628.845 208.336C628.269 207.712 627.501 207.4 626.541 207.4C625.581 207.4 624.801 207.712 624.201 208.336C623.625 208.96 623.337 209.728 623.337 210.64C623.337 211.552 623.625 212.32 624.201 212.944C624.801 213.568 625.581 213.88 626.541 213.88ZM656.943 194.8C658.647 194.8 660.195 195.172 661.587 195.916C662.979 196.636 664.083 197.68 664.898 199.048C665.715 200.416 666.123 202.012 666.123 203.836C666.123 205.66 665.715 207.256 664.898 208.624C664.083 209.992 662.979 211.048 661.587 211.792C660.195 212.512 658.647 212.872 656.943 212.872H654.062V220H646.863V194.8H656.943ZM656.943 205.888C657.495 205.888 657.963 205.708 658.347 205.348C658.731 204.964 658.923 204.46 658.923 203.836C658.923 203.212 658.731 202.72 658.347 202.36C657.963 201.976 657.495 201.784 656.943 201.784H654.062V205.888H656.943ZM674.573 193.72V220H667.913V193.72H674.573ZM696.306 220H689.646V218.38C688.494 219.796 686.886 220.504 684.822 220.504C683.214 220.504 681.786 220.096 680.538 219.28C679.29 218.44 678.318 217.3 677.622 215.86C676.926 214.42 676.578 212.8 676.578 211C676.578 209.2 676.926 207.58 677.622 206.14C678.318 204.7 679.29 203.572 680.538 202.756C681.786 201.916 683.214 201.496 684.822 201.496C686.886 201.496 688.494 202.204 689.646 203.62V202H696.306V220ZM686.442 214.384C687.402 214.384 688.17 214.06 688.746 213.412C689.346 212.764 689.646 211.96 689.646 211C689.646 210.04 689.346 209.236 688.746 208.588C688.17 207.94 687.402 207.616 686.442 207.616C685.482 207.616 684.702 207.94 684.102 208.588C683.526 209.236 683.238 210.04 683.238 211C683.238 211.96 683.526 212.764 684.102 213.412C684.702 214.06 685.482 214.384 686.442 214.384ZM707.302 212.224C707.302 212.944 707.494 213.436 707.878 213.7C708.286 213.94 708.922 214.06 709.786 214.06C710.338 214.06 710.77 214.048 711.082 214.024V220C709.978 220.168 708.898 220.252 707.842 220.252C705.274 220.252 703.426 219.64 702.298 218.416C701.194 217.168 700.642 215.224 700.642 212.584V208.336H698.122V202H700.642V198.94L707.302 196.96V202H711.082V208.336H707.302V212.224ZM723.528 200.2C722.664 200.128 721.98 200.26 721.476 200.596C720.996 200.932 720.756 201.4 720.756 202H723.528V208.336H720.756V220H714.096V208.336H712.008V202H714.096C714.096 199.552 714.816 197.644 716.256 196.276C717.696 194.884 719.796 194.188 722.556 194.188C722.988 194.188 723.312 194.2 723.528 194.224V200.2ZM733.687 220.504C731.935 220.504 730.315 220.084 728.827 219.244C727.339 218.404 726.163 217.264 725.299 215.824C724.435 214.384 724.003 212.776 724.003 211C724.003 209.224 724.435 207.616 725.299 206.176C726.163 204.712 727.327 203.572 728.791 202.756C730.279 201.916 731.911 201.496 733.687 201.496C735.463 201.496 737.083 201.916 738.547 202.756C740.035 203.572 741.211 204.712 742.075 206.176C742.939 207.616 743.371 209.224 743.371 211C743.371 212.776 742.939 214.396 742.075 215.86C741.211 217.3 740.035 218.44 738.547 219.28C737.083 220.096 735.463 220.504 733.687 220.504ZM733.687 214.168C734.575 214.168 735.295 213.88 735.847 213.304C736.423 212.704 736.711 211.936 736.711 211C736.711 210.064 736.423 209.308 735.847 208.732C735.295 208.132 734.575 207.832 733.687 207.832C732.799 207.832 732.067 208.132 731.491 208.732C730.939 209.308 730.663 210.064 730.663 211C730.663 211.936 730.939 212.704 731.491 213.304C732.067 213.88 732.799 214.168 733.687 214.168ZM752.127 205.492C752.463 204.268 753.123 203.32 754.107 202.648C755.091 201.976 756.231 201.64 757.527 201.64V208.84C757.143 208.792 756.855 208.768 756.663 208.768C755.391 208.768 754.311 209.152 753.423 209.92C752.559 210.688 752.127 211.816 752.127 213.304V220H745.467V202H752.127V205.492ZM780.735 201.496C782.823 201.496 784.455 202.156 785.631 203.476C786.807 204.772 787.395 206.632 787.395 209.056V220H780.735V209.956C780.735 209.332 780.579 208.84 780.267 208.48C779.955 208.096 779.499 207.904 778.899 207.904C778.179 207.904 777.639 208.156 777.279 208.66C776.943 209.14 776.775 209.776 776.775 210.568V220H770.115V209.956C770.115 209.332 769.959 208.84 769.647 208.48C769.335 208.096 768.879 207.904 768.279 207.904C767.559 207.904 767.019 208.156 766.659 208.66C766.323 209.14 766.155 209.776 766.155 210.568V220H759.495V202H766.155V203.692C766.707 203.02 767.391 202.492 768.207 202.108C769.047 201.7 769.995 201.496 771.051 201.496C773.115 201.496 774.615 202.24 775.551 203.728C776.847 202.24 778.575 201.496 780.735 201.496Z" fill="white"/>
<rect x="497.5" y="270" width="116" height="42" rx="21" fill="white"/>
<path d="M529.55 296.224C528.691 296.224 527.982 296.056 527.422 295.72C526.862 295.384 526.418 294.88 526.092 294.208L528.444 292.822C528.565 293.074 528.71 293.251 528.878 293.354C529.055 293.457 529.274 293.508 529.536 293.508C529.816 293.508 530.026 293.438 530.166 293.298C530.315 293.158 530.39 292.962 530.39 292.71V286.2H533.19V292.78C533.19 293.853 532.872 294.698 532.238 295.314C531.603 295.921 530.707 296.224 529.55 296.224ZM537.705 296.196C537.023 296.196 536.393 296.033 535.815 295.706C535.236 295.379 534.779 294.936 534.443 294.376C534.107 293.816 533.939 293.191 533.939 292.5C533.939 291.809 534.107 291.184 534.443 290.624C534.779 290.055 535.231 289.611 535.801 289.294C536.379 288.967 537.014 288.804 537.705 288.804C538.395 288.804 539.025 288.967 539.595 289.294C540.173 289.611 540.631 290.055 540.967 290.624C541.303 291.184 541.471 291.809 541.471 292.5C541.471 293.191 541.303 293.821 540.967 294.39C540.631 294.95 540.173 295.393 539.595 295.72C539.025 296.037 538.395 296.196 537.705 296.196ZM537.705 293.732C538.05 293.732 538.33 293.62 538.545 293.396C538.769 293.163 538.881 292.864 538.881 292.5C538.881 292.136 538.769 291.842 538.545 291.618C538.33 291.385 538.05 291.268 537.705 291.268C537.359 291.268 537.075 291.385 536.851 291.618C536.636 291.842 536.529 292.136 536.529 292.5C536.529 292.864 536.636 293.163 536.851 293.396C537.075 293.62 537.359 293.732 537.705 293.732ZM543.588 288.468C543.196 288.468 542.855 288.328 542.566 288.048C542.286 287.759 542.146 287.423 542.146 287.04C542.146 286.657 542.286 286.326 542.566 286.046C542.855 285.757 543.196 285.612 543.588 285.612C543.97 285.612 544.302 285.757 544.582 286.046C544.871 286.326 545.016 286.657 545.016 287.04C545.016 287.423 544.871 287.759 544.582 288.048C544.302 288.328 543.97 288.468 543.588 288.468ZM544.876 289V296H542.286V289H544.876ZM550.457 288.804C551.222 288.804 551.833 289.07 552.291 289.602C552.757 290.125 552.991 290.909 552.991 291.954V296H550.401V292.234C550.401 291.926 550.321 291.693 550.163 291.534C550.013 291.375 549.803 291.296 549.533 291.296C549.225 291.296 548.987 291.394 548.819 291.59C548.66 291.786 548.581 292.057 548.581 292.402V296H545.991V289H548.581V289.686C549.01 289.098 549.635 288.804 550.457 288.804ZM565.106 296H562.866L559.786 291.52V296H556.986V286.2H559.226L562.306 290.68V286.2H565.106V296ZM569.82 296.196C569.138 296.196 568.508 296.033 567.93 295.706C567.351 295.379 566.894 294.936 566.558 294.376C566.222 293.816 566.054 293.191 566.054 292.5C566.054 291.809 566.222 291.184 566.558 290.624C566.894 290.055 567.346 289.611 567.916 289.294C568.494 288.967 569.129 288.804 569.82 288.804C570.51 288.804 571.14 288.967 571.71 289.294C572.288 289.611 572.746 290.055 573.082 290.624C573.418 291.184 573.586 291.809 573.586 292.5C573.586 293.191 573.418 293.821 573.082 294.39C572.746 294.95 572.288 295.393 571.71 295.72C571.14 296.037 570.51 296.196 569.82 296.196ZM569.82 293.732C570.165 293.732 570.445 293.62 570.66 293.396C570.884 293.163 570.996 292.864 570.996 292.5C570.996 292.136 570.884 291.842 570.66 291.618C570.445 291.385 570.165 291.268 569.82 291.268C569.474 291.268 569.19 291.385 568.966 291.618C568.751 291.842 568.644 292.136 568.644 292.5C568.644 292.864 568.751 293.163 568.966 293.396C569.19 293.62 569.474 293.732 569.82 293.732ZM582.877 296H580.245L579.377 292.71L578.509 296H575.877L573.847 289H576.577L577.389 292.878L578.397 289H580.357L581.365 292.878L582.177 289H584.907L582.877 296Z" fill="#2C81C4"/>
<rect x="654" y="270.5" width="128" height="41" rx="20.5" stroke="white"/>
<path d="M688.585 296H682.565V286.2H685.365V293.284H688.585V296ZM691.53 293.382C691.661 293.653 691.847 293.839 692.09 293.942C692.333 294.035 692.622 294.082 692.958 294.082C693.182 294.082 693.387 294.049 693.574 293.984C693.761 293.919 693.952 293.802 694.148 293.634L695.842 295.062C695.487 295.445 695.049 295.729 694.526 295.916C694.013 296.103 693.462 296.196 692.874 296.196C692.081 296.196 691.381 296.037 690.774 295.72C690.177 295.393 689.715 294.955 689.388 294.404C689.071 293.844 688.912 293.219 688.912 292.528C688.912 291.828 689.071 291.198 689.388 290.638C689.715 290.069 690.158 289.621 690.718 289.294C691.287 288.967 691.927 288.804 692.636 288.804C693.336 288.804 693.961 288.967 694.512 289.294C695.072 289.611 695.506 290.05 695.814 290.61C696.131 291.161 696.29 291.781 696.29 292.472C696.29 292.78 696.253 293.083 696.178 293.382H691.53ZM693.84 291.716C693.681 291.156 693.303 290.876 692.706 290.876C692.426 290.876 692.179 290.946 691.964 291.086C691.749 291.226 691.591 291.436 691.488 291.716H693.84ZM704.445 296H701.855V295.37C701.407 295.921 700.782 296.196 699.979 296.196C699.354 296.196 698.799 296.037 698.313 295.72C697.828 295.393 697.45 294.95 697.179 294.39C696.909 293.83 696.773 293.2 696.773 292.5C696.773 291.8 696.909 291.17 697.179 290.61C697.45 290.05 697.828 289.611 698.313 289.294C698.799 288.967 699.354 288.804 699.979 288.804C700.782 288.804 701.407 289.079 701.855 289.63V289H704.445V296ZM700.609 293.816C700.983 293.816 701.281 293.69 701.505 293.438C701.739 293.186 701.855 292.873 701.855 292.5C701.855 292.127 701.739 291.814 701.505 291.562C701.281 291.31 700.983 291.184 700.609 291.184C700.236 291.184 699.933 291.31 699.699 291.562C699.475 291.814 699.363 292.127 699.363 292.5C699.363 292.873 699.475 293.186 699.699 293.438C699.933 293.69 700.236 293.816 700.609 293.816ZM708.162 290.358C708.292 289.882 708.549 289.513 708.932 289.252C709.314 288.991 709.758 288.86 710.262 288.86V291.66C710.112 291.641 710 291.632 709.926 291.632C709.431 291.632 709.011 291.781 708.666 292.08C708.33 292.379 708.162 292.817 708.162 293.396V296H705.572V289H708.162V290.358ZM715.493 288.804C716.258 288.804 716.869 289.07 717.327 289.602C717.793 290.125 718.027 290.909 718.027 291.954V296H715.437V292.234C715.437 291.926 715.357 291.693 715.199 291.534C715.049 291.375 714.839 291.296 714.569 291.296C714.261 291.296 714.023 291.394 713.855 291.59C713.696 291.786 713.617 292.057 713.617 292.402V296H711.027V289H713.617V289.686C714.046 289.098 714.671 288.804 715.493 288.804ZM729.442 296V291.226L727.258 294.894H727.006L724.822 291.226V296H722.022V286.2H724.822L727.132 290.19L729.442 286.2H732.242V296H729.442ZM736.961 296.196C736.28 296.196 735.65 296.033 735.071 295.706C734.493 295.379 734.035 294.936 733.699 294.376C733.363 293.816 733.195 293.191 733.195 292.5C733.195 291.809 733.363 291.184 733.699 290.624C734.035 290.055 734.488 289.611 735.057 289.294C735.636 288.967 736.271 288.804 736.961 288.804C737.652 288.804 738.282 288.967 738.851 289.294C739.43 289.611 739.887 290.055 740.223 290.624C740.559 291.184 740.727 291.809 740.727 292.5C740.727 293.191 740.559 293.821 740.223 294.39C739.887 294.95 739.43 295.393 738.851 295.72C738.282 296.037 737.652 296.196 736.961 296.196ZM736.961 293.732C737.307 293.732 737.587 293.62 737.801 293.396C738.025 293.163 738.137 292.864 738.137 292.5C738.137 292.136 738.025 291.842 737.801 291.618C737.587 291.385 737.307 291.268 736.961 291.268C736.616 291.268 736.331 291.385 736.107 291.618C735.893 291.842 735.785 292.136 735.785 292.5C735.785 292.864 735.893 293.163 736.107 293.396C736.331 293.62 736.616 293.732 736.961 293.732ZM744.132 290.358C744.263 289.882 744.52 289.513 744.902 289.252C745.285 288.991 745.728 288.86 746.232 288.86V291.66C746.083 291.641 745.971 291.632 745.896 291.632C745.402 291.632 744.982 291.781 744.636 292.08C744.3 292.379 744.132 292.817 744.132 293.396V296H741.542V289H744.132V290.358ZM749.171 293.382C749.301 293.653 749.488 293.839 749.731 293.942C749.973 294.035 750.263 294.082 750.599 294.082C750.823 294.082 751.028 294.049 751.215 293.984C751.401 293.919 751.593 293.802 751.789 293.634L753.483 295.062C753.128 295.445 752.689 295.729 752.167 295.916C751.653 296.103 751.103 296.196 750.515 296.196C749.721 296.196 749.021 296.037 748.415 295.72C747.817 295.393 747.355 294.955 747.029 294.404C746.711 293.844 746.553 293.219 746.553 292.528C746.553 291.828 746.711 291.198 747.029 290.638C747.355 290.069 747.799 289.621 748.359 289.294C748.928 288.967 749.567 288.804 750.277 288.804C750.977 288.804 751.602 288.967 752.153 289.294C752.713 289.611 753.147 290.05 753.455 290.61C753.772 291.161 753.931 291.781 753.931 292.472C753.931 292.78 753.893 293.083 753.819 293.382H749.171ZM751.481 291.716C751.322 291.156 750.944 290.876 750.347 290.876C750.067 290.876 749.819 290.946 749.605 291.086C749.39 291.226 749.231 291.436 749.129 291.716H751.481Z" fill="white"/>
</g>
<defs>
<filter id="filter0_bf_1_4" x="657" y="-1" width="437" height="437" filterUnits="userSpaceOnUse" color-interpolation-filters="sRGB">
<feFlood flood-opacity="0" result="BackgroundImageFix"/>
<feGaussianBlur in="BackgroundImageFix" stdDeviation="36"/>
<feComposite in2="SourceAlpha" operator="in" result="effect1_backgroundBlur_1_4"/>
<feBlend mode="normal" in="SourceGraphic" in2="effect1_backgroundBlur_1_4" result="shape"/>
<feGaussianBlur stdDeviation="9.8" result="effect2_foregroundBlur_1_4"/>
</filter>
<filter id="filter1_f_1_4" x="850.6" y="97.6" width="145.8" height="145.8" filterUnits="userSpaceOnUse" color-interpolation-filters="sRGB">
<feFlood flood-opacity="0" result="BackgroundImageFix"/>
<feBlend mode="normal" in="SourceGraphic" in2="BackgroundImageFix" result="shape"/>
<feGaussianBlur stdDeviation="11.2" result="effect1_foregroundBlur_1_4"/>
</filter>
<filter id="filter2_bf_1_4" x="-121.594" y="-147.594" width="437.055" height="437.055" filterUnits="userSpaceOnUse" color-interpolation-filters="sRGB">
<feFlood flood-opacity="0" result="BackgroundImageFix"/>
<feGaussianBlur in="BackgroundImageFix" stdDeviation="36"/>
<feComposite in2="SourceAlpha" operator="in" result="effect1_backgroundBlur_1_4"/>
<feBlend mode="normal" in="SourceGraphic" in2="effect1_backgroundBlur_1_4" result="shape"/>
<feGaussianBlur stdDeviation="9.8" result="effect2_foregroundBlur_1_4"/>
</filter>
<filter id="filter3_f_1_4" x="88.3269" y="17.4692" width="145.819" height="145.819" filterUnits="userSpaceOnUse" color-interpolation-filters="sRGB">
<feFlood flood-opacity="0" result="BackgroundImageFix"/>
<feBlend mode="normal" in="SourceGraphic" in2="BackgroundImageFix" result="shape"/>
<feGaussianBlur stdDeviation="11.2" result="effect1_foregroundBlur_1_4"/>
</filter>
<filter id="filter4_f_1_4" x="138.6" y="67.6" width="76.8" height="76.8" filterUnits="userSpaceOnUse" color-interpolation-filters="sRGB">
<feFlood flood-opacity="0" result="BackgroundImageFix"/>
<feBlend mode="normal" in="SourceGraphic" in2="BackgroundImageFix" result="shape"/>
<feGaussianBlur stdDeviation="11.2" result="effect1_foregroundBlur_1_4"/>
</filter>
<filter id="filter5_f_1_4" x="222.6" y="331.6" width="145.8" height="145.8" filterUnits="userSpaceOnUse" color-interpolation-filters="sRGB">
<feFlood flood-opacity="0" result="BackgroundImageFix"/>
<feBlend mode="normal" in="SourceGraphic" in2="BackgroundImageFix" result="shape"/>
<feGaussianBlur stdDeviation="11.2" result="effect1_foregroundBlur_1_4"/>
</filter>
<filter id="filter6_f_1_4" x="273.6" y="356.6" width="76.8" height="76.8" filterUnits="userSpaceOnUse" color-interpolation-filters="sRGB">
<feFlood flood-opacity="0" result="BackgroundImageFix"/>
<feBlend mode="normal" in="SourceGraphic" in2="BackgroundImageFix" result="shape"/>
<feGaussianBlur stdDeviation="11.2" result="effect1_foregroundBlur_1_4"/>
</filter>
<filter id="filter7_f_1_4" x="1081.6" y="388.6" width="145.8" height="145.8" filterUnits="userSpaceOnUse" color-interpolation-filters="sRGB">
<feFlood flood-opacity="0" result="BackgroundImageFix"/>
<feBlend mode="normal" in="SourceGraphic" in2="BackgroundImageFix" result="shape"/>
<feGaussianBlur stdDeviation="11.2" result="effect1_foregroundBlur_1_4"/>
</filter>
<filter id="filter8_f_1_4" x="1106.6" y="406.6" width="76.8" height="76.8" filterUnits="userSpaceOnUse" color-interpolation-filters="sRGB">
<feFlood flood-opacity="0" result="BackgroundImageFix"/>
<feBlend mode="normal" in="SourceGraphic" in2="BackgroundImageFix" result="shape"/>
<feGaussianBlur stdDeviation="11.2" result="effect1_foregroundBlur_1_4"/>
</filter>
<linearGradient id="paint0_linear_1_4" x1="0" y1="250" x2="1280" y2="250" gradientUnits="userSpaceOnUse">
<stop stop-color="#2662D6"/>
<stop offset="1" stop-color="#3DB8B1"/>
</linearGradient>
<clipPath id="clip0_1_4">
<path d="M0 30C0 13.4315 13.4315 0 30 0H1250C1266.57 0 1280 13.4315 1280 30V500H0V30Z" fill="white"/>
</clipPath>
</defs>
</svg>
