<svg width="97" height="21" viewBox="0 0 97 21" fill="none" xmlns="http://www.w3.org/2000/svg">
<path d="M13.3334 7.12379V14.3784C13.3334 17.9683 10.4233 20.8784 6.83337 20.8784C3.24352 20.8784 0.333374 17.9683 0.333374 14.3784C0.333374 10.7885 3.24352 7.87842 6.83337 7.87842C7.34967 7.87842 7.85187 7.93861 8.33337 8.05235V11.2152C7.87877 10.9992 7.37017 10.8784 6.83337 10.8784C4.90037 10.8784 3.33337 12.4454 3.33337 14.3784C3.33337 16.3114 4.90037 17.8784 6.83337 17.8784C8.76637 17.8784 10.3334 16.3114 10.3334 14.3784V0.878418H13.3334C13.3334 3.63984 15.572 5.87842 18.3334 5.87842V8.87842C16.4415 8.87842 14.703 8.2217 13.3334 7.12379Z" fill="white"/>
<path d="M25.3412 7.01904V6.14404H33.5677V7.01904H29.9115V16.7378H29.0131V7.01904H25.3412ZM36.3646 7.35498C36.5 7.35498 36.6042 7.39925 36.6771 7.48779C36.7552 7.57113 36.7943 7.67269 36.7943 7.79248C36.7943 8.08415 36.6511 8.22998 36.3646 8.22998C36.0782 8.22998 35.9349 8.08415 35.9349 7.79248C35.9349 7.67269 35.9688 7.57113 36.0365 7.48779C36.1094 7.39925 36.2188 7.35498 36.3646 7.35498ZM35.9349 16.7378V9.76904H36.7943V16.7378H35.9349ZM39.1224 16.7378V6.14404H40.0365V12.7222L42.8568 9.76904H44.0677L42.0912 11.8472L44.8881 16.7378H43.8802L41.5052 12.3784L40.0365 13.769V16.7378H39.1224ZM48.3568 7.35498V9.76904H50.1849V10.6753H48.3568V14.4722C48.3568 14.7222 48.375 14.9383 48.4115 15.1206C48.4532 15.3029 48.5183 15.4435 48.6068 15.5425C48.6954 15.6466 48.8047 15.7222 48.9349 15.769C49.0651 15.8107 49.211 15.8315 49.3724 15.8315C49.5235 15.8315 49.6667 15.8263 49.8021 15.8159C49.9375 15.8003 50.0651 15.7743 50.1849 15.7378V16.5581C49.9818 16.6779 49.711 16.7378 49.3724 16.7378C49.0964 16.7378 48.8386 16.7013 48.599 16.6284C48.3646 16.5503 48.1563 16.4201 47.974 16.2378C47.7917 16.0503 47.6667 15.8107 47.599 15.519C47.5313 15.2274 47.4974 14.8784 47.4974 14.4722V10.6753H46.2318V9.76904H47.4974V7.35498H48.3568ZM54.4506 10.6753C54.1381 10.6753 53.8542 10.7274 53.599 10.8315C53.349 10.9305 53.1433 11.0763 52.9818 11.269C52.8308 11.4513 52.7058 11.7196 52.6068 12.0737C52.5079 12.4279 52.4584 12.8237 52.4584 13.2612C52.4584 13.7196 52.5079 14.1154 52.6068 14.4487C52.7058 14.7821 52.8308 15.0477 52.9818 15.2456C53.1433 15.4591 53.349 15.6102 53.599 15.6987C53.849 15.7873 54.1329 15.8315 54.4506 15.8315C54.7422 15.8315 55.0131 15.7873 55.2631 15.6987C55.5131 15.6102 55.724 15.4591 55.8959 15.2456C56.2448 14.8341 56.4193 14.1727 56.4193 13.2612C56.4193 12.8237 56.375 12.4305 56.2865 12.0815C56.198 11.7274 56.0677 11.4565 55.8959 11.269C55.724 11.0815 55.5131 10.9357 55.2631 10.8315C55.0131 10.7274 54.7422 10.6753 54.4506 10.6753ZM51.5521 13.2612C51.5521 12.6779 51.6198 12.1675 51.7552 11.73C51.8907 11.2925 52.099 10.9279 52.3802 10.6362C52.6563 10.3602 52.9636 10.1466 53.3021 9.99561C53.6407 9.84456 54.0235 9.76904 54.4506 9.76904C54.862 9.76904 55.2396 9.84456 55.5834 9.99561C55.9323 10.1414 56.2474 10.355 56.5287 10.6362C56.7943 10.9019 56.9896 11.2612 57.1146 11.7144C57.2448 12.1623 57.3099 12.6779 57.3099 13.2612C57.3099 14.4435 57.0495 15.3107 56.5287 15.8628C55.9766 16.4461 55.2839 16.7378 54.4506 16.7378C54.0235 16.7378 53.6407 16.6649 53.3021 16.519C52.9688 16.3732 52.6615 16.1597 52.3802 15.8784C52.1094 15.6128 51.9037 15.2612 51.7631 14.8237C51.6224 14.381 51.5521 13.8602 51.5521 13.2612ZM58.9662 16.7378V6.14404H59.8802V12.7222L62.7006 9.76904H63.9115L61.9349 11.8472L64.7318 16.7378H63.724L61.349 12.3784L59.8802 13.769V16.7378H58.9662Z" fill="white"/>
</svg>
