<svg width="97" height="17" viewBox="0 0 97 17" fill="none" xmlns="http://www.w3.org/2000/svg">
<path d="M17.9393 3.87324C17.8631 3.57537 17.6476 3.35063 17.4008 3.2813C16.9623 3.15904 14.8334 2.87842 10.3334 2.87842C5.83337 2.87842 3.70491 3.15915 3.26464 3.28165C3.02015 3.34965 2.80469 3.57435 2.72749 3.87324C2.61869 4.29765 2.33337 6.07437 2.33337 8.87842C2.33337 11.6824 2.61869 13.4592 2.72779 13.8848C2.80365 14.1815 3.01915 14.4062 3.2649 14.4752C3.70491 14.5977 5.83337 14.8784 10.3334 14.8784C14.8334 14.8784 16.9623 14.5978 17.4021 14.4752C17.6466 14.4072 17.8621 14.1825 17.9393 13.8836C18.0481 13.4592 18.3334 11.6784 18.3334 8.87842C18.3334 6.07842 18.0481 4.29765 17.9393 3.87324ZM19.8766 3.3766C20.3334 5.15842 20.3334 8.87842 20.3334 8.87842C20.3334 8.87842 20.3334 12.5984 19.8766 14.3802C19.6221 15.3657 18.8794 16.1402 17.938 16.402C16.2295 16.8784 10.3334 16.8784 10.3334 16.8784C10.3334 16.8784 4.44076 16.8784 2.72876 16.402C1.78385 16.1366 1.04118 15.362 0.790134 14.3802C0.333374 12.5984 0.333374 8.87842 0.333374 8.87842C0.333374 8.87842 0.333374 5.15842 0.790134 3.3766C1.04466 2.39115 1.78734 1.6166 2.72876 1.35478C4.44076 0.878418 10.3334 0.878418 10.3334 0.878418C10.3334 0.878418 16.2295 0.878418 17.938 1.35478C18.8829 1.62024 19.6256 2.39478 19.8766 3.3766ZM8.3334 12.3784V5.37842L14.3334 8.87842L8.3334 12.3784Z" fill="white"/>
<path d="M30.2787 14.7378V9.40967L27.3412 4.14404H28.2162L30.7162 8.63623L33.2162 4.14404H34.099L31.1537 9.40967V14.7378H30.2787ZM38.6693 8.67529C38.3568 8.67529 38.073 8.72738 37.8177 8.83154C37.5677 8.9305 37.362 9.07633 37.2006 9.26904C37.0495 9.45133 36.9245 9.71956 36.8256 10.0737C36.7266 10.4279 36.6771 10.8237 36.6771 11.2612C36.6771 11.7196 36.7266 12.1154 36.8256 12.4487C36.9245 12.7821 37.0495 13.0477 37.2006 13.2456C37.362 13.4591 37.5677 13.6102 37.8177 13.6987C38.0677 13.7873 38.3516 13.8315 38.6693 13.8315C38.961 13.8315 39.2318 13.7873 39.4818 13.6987C39.7318 13.6102 39.9427 13.4591 40.1146 13.2456C40.4636 12.8341 40.6381 12.1727 40.6381 11.2612C40.6381 10.8237 40.5938 10.4305 40.5052 10.0815C40.4167 9.72738 40.2865 9.45654 40.1146 9.26904C39.9427 9.08154 39.7318 8.93571 39.4818 8.83154C39.2318 8.72738 38.961 8.67529 38.6693 8.67529ZM35.7709 11.2612C35.7709 10.6779 35.8386 10.1675 35.974 9.72998C36.1094 9.29248 36.3177 8.9279 36.599 8.63623C36.875 8.36019 37.1823 8.14665 37.5209 7.99561C37.8594 7.84456 38.2422 7.76904 38.6693 7.76904C39.0808 7.76904 39.4584 7.84456 39.8021 7.99561C40.1511 8.14144 40.4662 8.35498 40.7474 8.63623C41.0131 8.90186 41.2084 9.26123 41.3334 9.71436C41.4636 10.1623 41.5287 10.6779 41.5287 11.2612C41.5287 12.4435 41.2683 13.3107 40.7474 13.8628C40.1954 14.4461 39.5026 14.7378 38.6693 14.7378C38.2422 14.7378 37.8594 14.6649 37.5209 14.519C37.1875 14.3732 36.8802 14.1597 36.599 13.8784C36.3282 13.6128 36.1224 13.2612 35.9818 12.8237C35.8412 12.381 35.7709 11.8602 35.7709 11.2612ZM48.6927 7.76904V14.7378H47.8021V13.8472C47.2605 14.4409 46.5964 14.7378 45.8099 14.7378C45.4037 14.7378 45.0313 14.6649 44.6927 14.519C44.3542 14.368 44.0391 14.1545 43.7474 13.8784C43.1901 13.3368 42.9115 12.4644 42.9115 11.2612V7.76904H43.8177V11.2612C43.8177 11.7039 43.8698 12.0972 43.974 12.4409C44.0782 12.7795 44.2058 13.0477 44.3568 13.2456C44.5235 13.4591 44.7292 13.6102 44.974 13.6987C45.2188 13.7873 45.4974 13.8315 45.8099 13.8315C46.1016 13.8315 46.3698 13.7847 46.6146 13.6909C46.8594 13.5972 47.073 13.4487 47.2552 13.2456C47.4271 13.0425 47.5599 12.7769 47.6537 12.4487C47.7526 12.1154 47.8021 11.7196 47.8021 11.2612V7.76904H48.6927ZM52.2787 5.35498V7.76904H54.1068V8.67529H52.2787V12.4722C52.2787 12.7222 52.2969 12.9383 52.3334 13.1206C52.375 13.3029 52.4401 13.4435 52.5287 13.5425C52.6172 13.6466 52.7266 13.7222 52.8568 13.769C52.987 13.8107 53.1329 13.8315 53.2943 13.8315C53.4454 13.8315 53.5886 13.8263 53.724 13.8159C53.8594 13.8003 53.987 13.7743 54.1068 13.7378V14.5581C53.9037 14.6779 53.6329 14.7378 53.2943 14.7378C53.0183 14.7378 52.7605 14.7013 52.5209 14.6284C52.2865 14.5503 52.0782 14.4201 51.8959 14.2378C51.7136 14.0503 51.5886 13.8107 51.5209 13.519C51.4532 13.2274 51.4193 12.8784 51.4193 12.4722V8.67529H50.1537V7.76904H51.4193V5.35498H52.2787ZM61.2552 7.76904V14.7378H60.3646V13.8472C59.823 14.4409 59.1589 14.7378 58.3724 14.7378C57.9662 14.7378 57.5938 14.6649 57.2552 14.519C56.9167 14.368 56.6016 14.1545 56.3099 13.8784C55.7526 13.3368 55.474 12.4644 55.474 11.2612V7.76904H56.3802V11.2612C56.3802 11.7039 56.4323 12.0972 56.5365 12.4409C56.6407 12.7795 56.7683 13.0477 56.9193 13.2456C57.086 13.4591 57.2917 13.6102 57.5365 13.6987C57.7813 13.7873 58.0599 13.8315 58.3724 13.8315C58.6641 13.8315 58.9323 13.7847 59.1771 13.6909C59.4219 13.5972 59.6355 13.4487 59.8177 13.2456C59.9896 13.0425 60.1224 12.7769 60.2162 12.4487C60.3151 12.1154 60.3646 11.7196 60.3646 11.2612V7.76904H61.2552ZM65.8724 8.67529C65.5599 8.67529 65.2839 8.72998 65.0443 8.83936C64.8047 8.94352 64.599 9.08675 64.4271 9.26904C64.2448 9.46696 64.112 9.7404 64.0287 10.0894C63.9506 10.4331 63.9115 10.8237 63.9115 11.2612C63.9115 11.7039 63.9532 12.0946 64.0365 12.4331C64.125 12.7716 64.2552 13.0425 64.4271 13.2456C64.599 13.4487 64.8073 13.5972 65.0521 13.6909C65.3021 13.7847 65.5756 13.8315 65.8724 13.8315C66.1693 13.8315 66.4375 13.7847 66.6771 13.6909C66.9219 13.5972 67.1329 13.4487 67.3099 13.2456C67.4818 13.0321 67.6172 12.7638 67.7162 12.4409C67.8151 12.1128 67.8646 11.7196 67.8646 11.2612C67.8646 10.8237 67.8177 10.4331 67.724 10.0894C67.6355 9.7404 67.4974 9.46696 67.3099 9.26904C67.1433 9.10238 66.9323 8.96175 66.6771 8.84717C66.4219 8.73258 66.1537 8.67529 65.8724 8.67529ZM62.9974 14.7378V4.14404H63.9115V8.67529C64.4427 8.07113 65.0964 7.76904 65.8724 7.76904C66.2787 7.76904 66.6589 7.84717 67.0131 8.00342C67.3724 8.15967 67.6823 8.37061 67.9427 8.63623C68.2084 8.91227 68.4089 9.27425 68.5443 9.72217C68.6797 10.1649 68.7474 10.6779 68.7474 11.2612C68.7474 11.8602 68.6771 12.3732 68.5365 12.8003C68.4011 13.2274 68.2032 13.5815 67.9427 13.8628C67.4063 14.4461 66.7162 14.7378 65.8724 14.7378C65.0964 14.7378 64.4427 14.4409 63.9115 13.8472V14.7378H62.9974ZM74.9427 10.4644C74.8959 9.84977 74.7136 9.40967 74.3959 9.14404C74.2292 8.993 74.0339 8.87842 73.8099 8.80029C73.5912 8.71696 73.3256 8.67529 73.0131 8.67529C72.711 8.67529 72.4401 8.71175 72.2006 8.78467C71.9662 8.85758 71.7657 8.97738 71.599 9.14404C71.4532 9.28467 71.3308 9.46175 71.2318 9.67529C71.1381 9.88883 71.0782 10.1519 71.0521 10.4644H74.9427ZM75.474 13.3784C74.8542 14.2847 74.0339 14.7378 73.0131 14.7378C72.586 14.7378 72.2032 14.6649 71.8646 14.519C71.5313 14.3732 71.224 14.1597 70.9427 13.8784C70.6719 13.6128 70.4662 13.2612 70.3256 12.8237C70.1849 12.381 70.1146 11.8602 70.1146 11.2612C70.1146 10.6779 70.1823 10.1649 70.3177 9.72217C70.4532 9.27425 70.6563 8.91227 70.9271 8.63623C71.2032 8.36019 71.5105 8.14665 71.849 7.99561C72.1875 7.84456 72.5756 7.76904 73.0131 7.76904C73.4193 7.76904 73.7969 7.84456 74.1459 7.99561C74.4948 8.14665 74.8099 8.36019 75.0912 8.63623C75.3412 8.89144 75.5339 9.24821 75.6693 9.70654C75.8047 10.1649 75.8724 10.7118 75.8724 11.3472H71.0209C71.0261 11.7743 71.0756 12.144 71.1693 12.4565C71.2631 12.769 71.3959 13.0269 71.5677 13.23C71.7396 13.4331 71.9454 13.5841 72.1849 13.6831C72.4297 13.7821 72.7058 13.8315 73.0131 13.8315C73.3829 13.8315 73.7006 13.7638 73.9662 13.6284C74.2318 13.4878 74.4558 13.2925 74.6381 13.0425L75.474 13.3784Z" fill="white"/>
</svg>
